<svg xmlns="http://www.w3.org/2000/svg" viewBox="0 0 3500 1500">
  <path d="M1840 1650v-1l-1-2v-2h-45v1l-1 1-1 2v2h-39v-1l-1-1v-4h-45v1h-1v4h-1l-1 1h-29v-11l-1-11v-1h-62v-34l-1-35h-102l-81 1h-159l-79-1-1 1h-2v45h-1v1h-22l-1 15v16l-1 1h-127l-1-1v-31h-11l-10 1-2-1-1-1v-44h-2l-2-1-226 2-225 1h-1v-65h-2l-1-1-107 1H136l-1-75v-76h-25v-1h-1v-93l-1-93-1-1H36v-12l-1-2-2-1-7-4-7-5-4-2-4-2-3 1H2l-1-1v-4l-1-63V937h3l2-1 2 1h2l3-1 4-1 9-6 10-6v-11l1-1v-1h71V735h1v-1h14V576l1-1h183l183-1h38l38-1h1v-17h1l50-1h50v-52h-25v-1l-1-59V210h-50v-41l-3-1h-4v-1l-1-1V10h1V9h129l129-1h3v17l1 17h80l80-1h344V13l1-4V6h267l1 62v95l-5 1h-5l-1 1v41l-25 1h-25v9l-1 9 1 16v17h38l1 1v72l-1 1v1h-38v161l-13 1h-13v56l1 1h69v1h1v19h-3v-16l-1-1v-1l-34 1h-36l-1-30v-30h-8v59l-10 1h-10l-1 1v4l1 2 1 2 3 1h3v55l1 56h-2l-1 1h-3l-3 1v6l1 1 3 1 3 1 2 2 3 1 2-1h3v-2h2l3-1 1-1 1-1v-6h-1l-3-1-3-1v-38l-1-38 1-18v-18h74l1 1v111h-1l-21 1h-21l-1 4v4l1 1h42l2 2 2 1h4l2-1 2-2h8l1-1v-8h-10l-1-1v-93h40v92l-2 2-3 1v4l1 2 1 2 2 1 2 1 3 1 1 1h1l2-2 3-2h53l52-1h7v-8h-1v-1h-14v-1l-1-1v-5l1-4v-12h-4l-1 12v11h-94v-93h95l-1 18v20l1 3h4v-6l-1-6 1-15v-14l29-1h29v15l1 1h4l-1-8v-8h99v5h1l1 1 1-1 2-1v-4h59v93h-1l-1 1h-9l-9-1v5l1 5h8l9 1 1 1 1 1 1 1 1 1h4l1-1 2-1v-1l1-2h24v-9l-1-1-11 1h-10l-2-1h-2V564l1-1h46l45-1 1 56v56l-1 1h-15l-15 1v4l1 4 15 1h15v43l-1 1h-45l-45 1v-1h-1v-10l-1-10-3 1h-4v1h-1v6l-161 1h-162l-1-1v-3l-2-1h-3l-2 1-1 1-1 2-2 1h-5l-3 1v8h5l5 1v227l1 55 4 1h4v-45h103l1 2 1 3 2 1 2 1h2l2-1v-7l1-8 2-3 3-3 2-2 2-2 27 1h58l31-1 4 4 5 5 1 2 2 2v65l1 64-2 2-1 2-2 1-2 1h-123l-1-1-2-2-1-2-2-2-2-2v-11l-1-10-1-1h-4l-3 1v11l-33 1h-52l-19-1v-18l-1-19v-1h-8v116l1 87v87h-5l-5 1h-1v8l2 1h7l1 1h2l-1 1v1l1 2v1l2 1h2l2-1h1v-3l1-3h83l3-1v-8l-1-1h-6v-41l1-41 1-3 1-4 2-3 2-4 2-3 2-3 3-3 4-3 3-3 3-2 2-1 3-1 48-1h48l2 1 3 1 3 2 3 2 4 3 3 3 4 5 3 5 2 3 1 2 1 4 1 3v50l-1 4v28h-3l-1 1-1 1v6l1 1 1 1 95-1 96-1 3 2 3 1h4l2-1 2-2h8l1-1v-8h-10l-1-1h-1v-109l-4 1h-4v108l-1 1h-45l-45 1-1-1v-156h45l45-1 1 1 1 4v4h8v-29h-9v15l-1 1-2-1-2-1-39 1-40 1h-7v-60l45-1h45l1 3 1 3h4l3 1 1-1v-64h-8v1h-1v52l-1 1h-16l-16 1-1-1v-1l-1 1v1h-3l-1-1h-2v1h-12l-4-1-1 1h-1l-1-1-1 1h-2l-1-1-2 1-2 1v-2l-1-1-1 1v1h-19l-1-1h-1v-66l-1-1v-1l-5 1h-4v35h-1l-2 1h-60l-1-1v-95h1l31-1h31v30l1 2v2h10v-31l-1-10h1l1-1h36l36-1 9 1h10l-1 21v21l1 1h7v-90h-8l1 21v21l-3 1h-89v-1l-1-51v-52l45-1h47v17l1 18 3 1h4v-91h-7l-1 25v25h-92V739l46-1h46v19l1 18h7v-35l1-1v-1l2-1 3-1v-2l1-1v-2l-1-2h-3l-3-1v-42l1-1h1l1-1h2l1-1 1-1v-8h-7v-66h4l1-1 2-2v-2l-3-1h-3l-1-18v-18l1-2v-2h4l1-1h1v-6l-1-1v-1h-3l-2-1-1-27-1-28 1-2v-1h6v-8h-12l-12-1-2 1h-4l-1-1v-90h-9v35h-41v-73l1-1h39v1l1 1v14h5l4 1v-12l1-12-1-72v-73l1-1v-1l6-1h6v-8l-1-1h-12v-4h-8v3l-1 45v46l-1 1h-4v1h-1l1 1 1 2h2l2 1v64h-1v1l-20-1h-20v-64h1l1-1h17v-1h1v-3h-19l-1-1v-85l1-38h68l1-2v-7h-77l-1-1V15h120v109l-1 25h-2l-2 1-1 1h-1v4l1 3h31l31 1v1l-1 1h-65v-1l1-7v-6l2-1h3v-1h1V82l-1-64-56 1h-56l-1 1v92l-1 33 1 1 1 1h76v7l1 7h-2l-1 1h-17v3h-14v-1l-1-1v-2l-17 1h-17l-1 1v71l1 4-1 1v1l-1 20v19h1l1 1h17l1 1v9h-18l-1 1v43l-1 15h1l2 1h33v-60h-2l-2-1h-1v-8l3-1h3l-1-47v-47h1l1-1h13l1 2v2l6 1h5v14h-11v150l-1 11v11h-7l-7-1-1-1v-15h-33l-3 1 1 15v15h5l2 1v1h-7v35h34l1-1v-33l-11-1h-13l-3-1h1v-1h24l2 1 1 1h14v90h31v8l1 7h-7l1 26v27h3l2 1v13l-1 1h-4v34h3l1 1 1 1 1 2-1 3v2l-1 1-1 1h-2l-1 1-1 1 1 29v28l-1 1v1h3l3 1v13l-1 1-2 1h-2v3l-1 2 1 17v17h5v11h-5v23l-1 15v2l-5 1h-6l-2-1v-17l-1-18-1-1-42 1h-43v106h1v1h38l38-1h10v-49h13v45l1 45-1 3v2h-13v-34l-1-1h-43l-42 1v99l43-1h43v-43h7l6-1v49l1 48h-13l-1-1-1-21v-21l-42 1h-43v40h-1v1h-5l-5 1-2-1h-3v-34h-57l-1 1v89h58v-34l1-1h13l1 1 1 1v65l1 1h42l42-1v-27l1-28h13v8l-1 3 1 1v1l1 30v31l-1-1-1-1h-12l-1-1v-6h-43l-41 1h-1v54h84l1-1 1-1v-14h14v1l1 2v31l-1 1v1l-8-1h-7v-9l-42 1h-42l-1 28v121l1 1v1h42l42-1 1-1v-54l-1-54 2-1h11l1 14v14l1 30v52h13v7l-1 7-1 1h-4l-5 1-3 1-2 1h-7l-3-1-2-2h-82l-1 1h-2v5l-2 1h-9l-2-1h-2v-5h-95v-15l1-1h1-33v4l-1 4-1 1h-14l-3-1v-8h-35v6l-1 1v1l-7 1h-6l-3-1h-2l-1-4v-4h-10l-10 1h-11v15l-1 1h-82l-1 1-2 1-1 2-1 2h-3l-5-1h-5v-4h-4l-5-1h-1l-1-1v-13l1-1h9v-291h14l2 1h6l5 1h7l2-1h8l8 1 2-1 2-1v2h2l2 1h1l1-1 1 1v7h-8v9h-8v-9h-32v28h32v-10h7v10h26v-9l1-1 2-1 1 1 2 1v9h26l1-1v-5l-1-6 8 1h7l1 11v11l1 2 1 1 2 2 2 2 2 1 2 1 58-1h59l2-1h1l1-1V961l-2-3-2-2-3-3-3-2h-115l-2 2-2 2-1 3-2 2v7l1 6-1 1-1 1h-12l-2-1v-4l-1-1h-24l-1 1v11l-1 1h-5l-1-2v-6l1-5h-25l-1 1v11l-1 1h-2l-2 1-1-1-2-1 1-6v-6h-32l-1 1v32h32l1-1v-7h3l3 1h1v14l-1 1h-39v4h-15l1-36v-35l-1-77V731l-1-1h-9v-14h1l4-1h4l2-2 2-2h10l1 2v1h2v1h22l147-1h148v-6l5-1h8l2 1v18h43l42 1v-1h1v-39h-1l-1-1-11 1h-18v-7l1-7v-1h15l14-1h1v-53l-1-53-42 1h-43l-1 2v52l1 51v1h13l12 1v14h-1l-2 1-8-1h-8l-3 1h-3v3l-1 1v1h-14l-1-1 1-2v-2h-3l-3-1h-14v-3l1-4v-8h19l-1-25v-64l-1-1-26 1h-26v7l-1 1h-7l-1-1v-7h-93v1h-1v17h-10v-17h-52v41l-1 1v1h-8l-2-1v-20l1-21h-1v-1h-88v89h88v-3l1-3v-17h8l1 2 1 2v5l-1 6 1 4v4h14v1l1 5v6l-1 1v2l-56 1h-57l-1 1-1 2h-9l-2-1-3-1-2-2-2-1v-6l1-3v-4h3v-1l1-1v-43l-1-44h-33l1 44v44h8l1 1 1 1v13h-1l-4 1-5 1-1 1-2 1h-4l-4 1-3-2-4-2h-18l-19 1-2-1h-3v-14h1v-1l21-1h22V568h-1v-1h-68v12l-1 13 1 9 1 9-1 1h-1l1 31v31h2l2 1h2v1h1v13l-3 1-3 1-4 1-5 2-3-1-3-1-2-1-2-1h-4v-2l-1-2v-6l1-5h3l2-1h2v-53l-1-52-3-1-3-1v-4l-1-4 1-3v-3h20v-28l-1-29h-12v-41h14v7l-1 1h-1l-2 1h-3v8h7l7 1h17v-5l1-4h-2v-1h-3v-5l-1-1-1-2h6V348l1-20v-19h14l1 1v11l1 1h14l13-1v-24l-1-1v-5h1v-11l-1-11-13-1h-14v14h-1l-1 1h-12l-1-1v-38l-1-37h-37l-1-1v-14h22l1-1v-5h-1l-1 3v2h-2v-6h7v3l1 4h39l22-1v-27h-8l-8-1-20 1h-20l-1 1v1-2h-5v8h-2l-1-2-1-2 1-1v-2l-1-1-1 1v3l1 1h-1l1 1 1 1v1h-4v-7h-1l-1-1h-17v-13l1-1v-1h4l1-1h1v-14h14l1 7 1 7 1 1 37-1h39V21l-1-1h-75l-1 1v1l-1 44v46l-1 1h-7l-7 1v-10h-11V94h10l1-1V21h-43v1h-1v36l1 35h2l2 1h8v3l1 2v5h-3l-5 1h-6v9h-14V67l-1-46h-85l-1 1v126l1 1h37v15h-118v-5l1-5v-2l1-3h62V56h-49v64h-5l-5 1v-6l1-4-1-4v-4l-1-5v-6l1-17V57l-1-1h-45v93h1l5 1h5v-2l2 1h8v1h1v7l1 7-2 1h-4l-1-1-34 1h-35v-15h42v-9l1-10-1-37V56h-105v93l1 1h43v7l1 7-1 1h-66v-15h11v-28h1l1 1v18l1 9h6v-47l-1-47h-5v24l-1-1-1-1 1-6v-7l-1-3-1-2v-1l1-1h-1l-1-1h-3l-3-1h-16l-16 1v82l1 5v6h8v15h-59v-15h39V57h-97v2l-1 2v90h20l19-1 1 1v8l1 7h-79v-15h27l1-46V59l-1-2h-57l-56 1v93h67l1 8v7H763l-26 1v2h-1v4h-10l-1-1-2-1-2-3-2-3v-5l-1-5 3-3 3-3 1-1h11l1 2v1h1l1 1 45-1h46V23h-91v1l-1 1v93l-1 10h-3l-2 1-5-1h-4v-2l-1-1v-2h-11v-6l1-1h10l-3 1-2 1v2l2 1 2 1v-1l1-3 1-3V24l-1-1h-35v49l1 44v3l1 3 3-1 3-1v-2h-5l-1-1-1-1h8l2 1h1v6h-10l-2 1v3l-1 1v1h-12l-1-1-2-1V24h-73l-1 1v98l1 28 1 1 1 1 36-1h35l2-2 2-2h10l3 3 3 3v11l-4 4-3 4-4 1h-3l-2-1h-2v-3l-1-1v-1h-11l-1 2v5h-4l-4 1-1-2-2-1v-6h-8l-8 1h-1l-1 1-1 3-1 2 1 2v2h2l-1 3v3l-1 4v4l1 2v1h18v-1l1-2v-3l2-1 1-1h7v7l2 1h16v14h-22l-1 1-1 1 1 139 1 138h29l2 1v13l-3 1h-2v52h5v13l-1 2-2 1h-2l-1 1v9l-4 1h-6l-4-1v-10h-85l-1 1v105h86v-54l1-20 1-1h12v37l1 36v1l1 1h4l1 6v6l-1 1v1l-3 1-2 1-1 3-1 3h-1l-2 1h-9v-4l-1-3-2-1h-16l-14 1h-47l-7 1v2l-1 2-4 1h-6l-3-1-1-1v-3l-1-1h-8l-7 1v-13l1-4h14v-47l-1-1 1-1 1-1h-1l-1-1 1-1 1-2v-16l-1-17h-95l-1 1h-1v87h32l31-1 1 3v14h-16l-16-1-53 1h-52v-16h62v-49l-1-1-1-2 1-1 1-1v-34h-87l-1 1h-1v35l1 1v2l-1 1v48h7v1l1 1v14h-28v-4l-1-4 1-4v-4h11l-1-44v-43h-20l-10-1h-10l-1 1v5h-1v1l-1-1h-1v-6h-2l-1 1v1l-1 2h2l1 1v1h-5l-1-1v-2l-1-2-12-1h-33v66l-2 1-3 1-3-1-3-1v-66H138l-1 1h-1v87h2l1 1h86l1 3v11l-2 1-2 1-1 2v2l-1 1-1 1h-5l-1 1-1 1h-5v-9h-69l-1 1v7l-1 1v1l1 15v15h17v16h-6l-7 1h-9l-9-1-1 1v156l1 2 15 1h16v14l-46 1H61v3h-1v-2h-2l-4 3-3 3-6 2-5 3-4 3-3 2-6 4-7 4-2 2-3 2v17h2l2 1h3v14l-4 1h-3v97l1 4 3 1 3 1v12l-1 1-2 1h-2l-1 1h-1v9l1 2 2 1 3 2 4 2 5 3 5 3 8 6 9 5 3 2 3 2h2l1 1h75l10 1h9v1h1v13l-1 1h-31l-1 1v171l3 1h3l40-1h40v-41h14v6l1 6v28l2 1 1 1h1v11l-1 2-1 3h-1l-1 1-2 2h-1l-1 1h-9l-1-1-1-1v-1l-1-2h-59v15l1 15 1 1 28-1h30l1-1v-3h4l3-1 2 1h3l1 2 2 2h1l1 1 1 2 1 2v5l-1 5-1 1h-2l-3 1-3 1-3 1v1h-1l-1-2-1-1-2-1h-31l-30 1-1 1v44l1 44h2l2 1h29l28-1h1v-65l1-6h8l1 2 1 1h2l2 1 1 1 1 1v7l-1 2h-6v56h34v-56h-14v-10h1l2-1 5-1h6l1-1 2-2h6l1 1v1l1 34v35h42l-1-45v-45h-18v1h-3v-1h-19l-2 2-3 1h-4l-1-1-1-1-4-1h-4l-1-1h-1v-6l1-6 3-4 4-4h6l3 1h2v2l1 2h64v15l-6 1h-6v89l1 1 23-1h24l1-1-1-44v-44h-18v-16h40l1 1v14h-1l-6 1h-6v89h1v1l87-1h87l1-1v-54l1-1h14v121h2l1 1h90l1-2 1-1v-52l-1-52 1-7v-6l3-1h3l2 1h2v4l1 4h20l1 1v9h-22v101h60l1-1v-100h-1v-1h-11l-10 1-1-5v-5l11-1h12v-12l-1-12 1-6v-7l-1-1h-3l-3 1-5-1h-6l-1-1 1-7v-7l7 1h8v-1l1-6v-5h2l2-1h5l6 1v11h14v15h-18l1 36v114h26l27-1v-85l-1-64h-15v-8l-1-7h61l60-1 1 1 1 1-1 7v7h-95l-1 1 1 74v74h41l41 1 25-1h25v-1l1-2v-146l-2-1h-16l-1-1v-14h11l12 1v-13l8 1h7v10l1 1h12v14l-1 1h-21v30h16l6-1h6v-4h7l7 1v124h24v-150h-25v-8l-1-7h101v6l1 7-1 1-32 1h-33v149h3l3 1v5l1 5-1 2v2h-3l-3 1-1 1v13l-1 14 1 1 1 1h25v1l1 1v13h-10v21l1 2h110l1-1h1v-11l-1-10-3-1h-6v-15h2l12-1h13v-29l-1-1h-3v-2l-1-1v-6l1-6 1-1h2v-66l1-63-1-10v-9h-59l-1-1v-14l36-1h35l1-5v-7h12l1 1 1 1v7l2 2 1 2 21-1h20v-1l1-1v-9h1v-1l6 1h6l1 2v9h43v15h-59l-59 1v43h25l24-1 1 1h1v8l-1 2-1 1h-49v94h75l1-7v-48l-1-39-2-1h-2l-1-1v-9h75v8l-1 1v1h-58l-1 2v3l1 44v45l1 1h127v-5l1-5v-1l1-1h2l2-1 2 1 3 1v10l4 1h49v-1h1l-1-47v-48l-9 1h-10v-2l-1-1v-4l1-3 10-1h10v-8h9l1 56v57h141v-148l-1-1h-58v-15h86v-9l1-1v-2h14l1 1v11l21-1h29l8 1 1 7v7h-86l-1 1-1 1v148h84l1 1v14h-41v16l-1 1-1 1h-10l-1-1v-8l-1-8h-30v27l1 27h30v-17h10l1 1h1v15l1 1h12l1 1h2v7l1 6 1 1h19v3l1 3h4l4 1h37l1-3v-4h20l19-1 1 1 1 1v4l1 1h44l1-1v-6h41v4l1 1v2l22-1h24v-7h22v-13l1-1 1-1v-15l1-1h6l5-1 1 2v16h26l1-1h1v-13l-1-1v-6l1-1-1-16v-17h-27v16l-1 1h-10l-1-1-1-1v-15h-36l-1-1h-1l1-7v-7h1l38-1h38v-30l1-29v-89h-1l-1-1h-78v-14l79-1h79l3-2 3-2 4 1h5l1 1 1 1h11v15l-1 1h-14v2h-6l-1-1-2-1h-34l-33 1h-2l1 74v73l1 1h1l166-1 167-1h154l1 2v12l-1 1-2 3-2 2h-3l-4 1-1 1v25l-2 2-1 2v11h48v-1l1-4 1-4-1-2v-1l-1-1h-1l-1-1v-27h-2l-1-1h-5l-2-2-2-3-1-2-1-2v-10h1l1-1h77l78-1h57l56 1h83v1l1 1-2 1h-348v1l-1 1v3l1 2 1 3 2 2 1 1 2 2h6l1-1 1-2v-1l1-1 1-1h5l3 1h2v36h-8l-1 1v8l6 1h9l3-1v-11l1-12v-11l-1-12 13 1h198l92-1h179v-1h1v-54h1l173-2 173-2 44-1 43-1 1-1v-62l1-48v-49l1-1v-1h24v-3l1-3-1-49v-59l1-10h12v-1l1-2-1-102V846l-1-2v-1h-13V724h-1v-1h-3l-3 1-4-1h-4V560l-1-1-143 1-144 1h-159v-11l-48 1h-48l-1-1h-1v-63h25v-1h1l-1-25v-25h49l1-9V287l1-46v-86h11l1-1-1-75V3h-1V2l-129 1-130 1h-1l-1 1v33l-1 1h-243l-76 1-55-1h-91l-38 1V7l-1-1V5l-104 1h-159v74l-1 74 1 2v2l3 1h3v1h1l-1 6v5l1 134v133l1 1h48l1 28v27h25v29l1 29h-1l-1 1h-49l-50 1v16h-4v-19l51-1h50v-1l1-26v-26h-25l-1-1v-54h-1v-1h-24l-24 1-1-1-1-1 1-35V163h-1v-1h-7V5l1-1V3h21v2l19-1 18-1h105l105-1h1l1 1 1 17v17h286l105-1h106V26l1-10V2l133-1 134-1v79l1 78-1 1h-5l-6 1v3l-1 3v202l1 44-1 14v14h-51v8l1 8v35h-24v1h-1v56h1v1h97v9l1 1 211-1 211-1h12l12 1v81l1 82h7l7 1v59l1 60h13v286l1 67v7l-1 7h-6l-6 1v7l-1 7v109h-24l-1 1v160h-16l-16 1-72 1-72 1-129 1-130 2-1 1v54h-1l-97 1h-384v23l-1 22-1 1-1 1h-9l-10-1v2l-1 2v1h-56v-5l-11 1h-10v-1l-1-1v-45h-116l-166 2-165 1v34l-1 34v1l-24 1h-24l-1 1v16l-1 5h-29v-4h-1v-1h-22l-23 1v2l-1 3h-25l-15 1zm-50-11-1-8h-34v17h35zm87 0v-9h-34l-1 3v12l1 3 17-1h17zm76 7 1-1v-21h48l1-2v-48l1-20 225-2 225-1h1l2 1v45l3 1h16v-3l1-4v-4l1-1 2-1v-26l-1-1h-2l-2 1-1 1v2l-1 10v11l1 2v2h-1v1h-7v-37h9l3 1 1 1 1 1 1 1v1l3 1h2l4-4 3-3v-7h-214l-143 1h-66l-67 1v-155h91l1-1v-9h-1v-1h-4l-4 1-2-2-2-2h-2l-1-1-3 2-2 3h-80l-79 1-1 4v3l1 1 1 1h78v1l1 1v137l-1 16h-77v1h-1v7l1 1h77l1 1v59l-1 1h-42v1l-1 2v11h-11l-10 1v2l-1 2v12h1l1 1h22zm-250-5v-8l-1-2h-20v-15h-28l-28 1-2-1-2-1v-28l1-16v-15h42l42-1 1-2v-4l-1-3h-84v-3l-1-44v-107h1l1-1h86v-9h-59v-7l-1-6h-3l-3 1h-2v8l-1 2v2h-86v8l1 1h57v2l1 74v79h-31l-199 1-199 1h-15v7l1 1 1 1 2 1 1 1v34l-14 1h-13v8h3l3 1h30v-46h430v33l1 34v1h1l30 1h31l1 1v21h25zm49 0v-3l-1-1h-44l-1 1v4h44l1 1zm87-2v-3l-19 1h-26v5h45zm88 1v-3l-1-1h-44l-1 2v3l1 1 22-1h22zm-767-9 1-3v-16h-1v-1l1-1v-4h-3v24h-2l-2 1-55 1h-55l-2-1-2-1v-23l-1-1-1 1h-1v13l1 14v1h61l61-1zm801-21v-13h-6l-1 1v14h3l4-1zm-295-4v-6l-1-1v-1h-5l-1 1v14h7zm-617-6v-5l-1-1h-12l-12 1-1-1h-1v-36l3-1h4v-1l1-1v-6h-1l-1-1-231 1-231 2v-1h-1v-61l-1-61h-5l-1 1h-2v56H394l-122 1H148l-1-1-1-37v-47l1-11h77l1-1h1v-6l-4-4-3-4h-1l-2-1-1 1-2 1-1 2v2h-66v-35l1-1 31-1h31l2 1 1 1v3l2 1 1 1h2l2-1 2-2 1-3 2-1h1v-3l1-2v-2l-1-1-2-1h-2v-40h-1l-1-1h-5l-2 1v40h-91v-65l-1-63v-25l1-25h16l16-1v-8l-1-1v-1l-45 1H59l-3-2-3-2-1-1-1-1-8-4-7-5-8-5-8-4-4-3-3-2-1-1v-14l3-1 3-1 1-1 1-2v-4l-4-1-4-2v-53l-1-53h2l3-1h1l2-1v-6l-1-1h-2l-2-1h-3v-21l1-1 1-1 4-3 4-2 14-9 13-8 6-4 5-3h46l47-1v-8l-1-1h-31l-1-1v-77l-1-77 1-5v-4l16-1h16l1-2v-7h-17l-1-3v-43h2l2-1 35 1h35l1 1 1 1v4l1 1v1l4-1 3-1v-1l1-1v-2l1-2 1-1h2v-2l1-1v-6h-2l-1-1-42 1h-43l-2-1v-93l1-1h176l4 1 126-1h128l1 21v21l-1 26v25h-7l-8 1h-1l-1 1v3l1 4v1h12l2 1h2v4l1 1h3l2 1 2-1 1-1v-2l1-2 45-1h46v5l1 1h1l2 1h2l1-1 2-2v-4h3l1-1 1-1v-8h-3l-2-1v-34l-1-35 1-3v-2h-8v1l-1 1v73h-46l-45 1-1-1V569l1-1h91v9l1 2h5l1-1h2v-10h2l2-1h1v-8l-1-1h-1l-2-1h-2v-34l1-11v-11l1-1h2l1-1 1-1v-7h-31V377l-1-64V208h1l1-1h21v-2l1-3v-4h-73l-1-16v-17h2l2-1h68l1 1v4l1 1 1 1h4l1-1 1-1 1-2 1-2 2-2 1-1 1-2v-2l-1-1v-1l-3-2-3-3-3 1h-3l-1 1-2 1-39 1h-39v-1l-1-1v-46l1-46-1-19V24l1-2v-1h80v104h9l-1-50V22l1-1 1-1h39l1 1 1 1v103h9V21h1l1-1h48l48-1 1 1v133l-49 1h-48l-2-1-1-2h-7l-3 3-3 4v3l2 2 1 2 2 2 1 2 1 1 1 1h3l1-1 1-1 1-2 1-2 86-1 87-1 1-1h1v-6l-1-1-1-1h-66l-1-50V55l32-1h253l103-1h123l1 1v96l-1 2h-31l-32 1v1h-1v6l1 1 55 1h55v-4l1-4-1-1v-1h-37v-1l-1-63V22l1-3h23l24-1 23 1h23v46l1 45 3 1h2l1-1 1-1V18h50v92h2l2 1h3l1-1h1V22l1-4h41l42-1v134h-40l-41 1-1-1h-2v-7l-1-7h-6l-2 1v14h-6l-1 1-1 1 1 4v3l2 1h45l43-1-1 17v16l-1 1h-44l-45 1v8h40v75h8l1-1-1-15v-15l1-22v-22l24-1h25v-41l5-1h6v-1h1l-1-76V8h-260v18l-1 16v1h-20l-242 1-243 2h-4l-2-1h-2V11H610l-12 1h-12v152h3l2 1h2v1h1v40l1 1h48v2l1 145 1 146h25v56l-1 1v1h-50l-49 1-1 9v9H434l-154 1-154 1-1 1 1 78v78l-1 1v1h-14l-1 6v166l-1 1-1 1H73l-35 1v11l-1 1h-1l-11 7-11 7h-1l-1 1H3l1 67v122h11l4 3 5 3 4 3 4 2 2 1 2 1 2 1 1 1v12l1 1 35-1h35v1l1 1 1 93v93h26v76l1 75h175l78 1 82-1h82v32l1 32v1l227-1 228-1 1 1v44h35zm1485-27v-14l-1-1h-4v27l1 1h4zm6 1v-20h-6v1l2 3 2 2v25h2zm-69-3-1-12h2l2-1v-4h-4l-1 14v14l-1 1h3zm-510 0 1-1-1-6v-7h-7v14l1 1h5zm-295 1v-13h-6l-1 1v5l-1 5 1 1v2h6zm-199-29v-110h-4v5l-1 5 1 50v50l1 1 1-1h2zm-203-2v-91l-1-1h-2l-1 1v1l-1 1 1 45v45l1 1 1 1h2zm138 2h1v-7l-1-1h-3v2l-1 2 1 2v2h2zm-424-13v-17h-4l-3-1-10 1h-11v32l1 1h27zm11 1v-107h-4l-3 1h-1l-1 1v59l1 59v1l1 1h3l4-1zm189-10v-75l1-51h-5v143l1 5v1h3zm-509 26 1-1v-25l1-25v-65h-6v116h3zm72-5v-145h-5l1 74v75l1 1h3zm63 2v-75l-1-72h-4v1h-1l1 74 1 73v1h4zm143-1 1-2-1-72v-73h-4v1h-1v74l1 74h4zm76 0 1-1-1-73v-73l-1-1h-2v1l-1 1v147h1v1h3zm-45-35v-4h-13l-12 1-2-1h-1v7h28zm-1-9v-3h-27v7h14l14-1zm0-8v-4h-27v7h27zm0-9v-4h-24l-2 1h-1v6h27zm-603 0h1l-1-45v-44h-2l-2-1v39l-1 34 1 9v9h2zm-155-33v-33h-3l-1 1v66h4v-1zm45 1v-33l1-1h-6v66l2 1h3l1-1zm51-13v-45l-1 1h-2v90h2l2-1zm662 36v-3h-26v1h-1v6h27zm-10-5h10v-7h-6l-6 1h-15v7l4-1h3zm10-9h1l-1-3v-3h-27v7h27zm0-11v-4h-14l-13 1v6h27zm482-5v-2l-1-1-7 1h-8v4l6 1h10zm-136 2v-3h-68l-1 1 1 2v1l10 1h57zm-95 0 1-2-1-1h-47v5h47zm-251-6v-3h-26l-1 1v3l-1 2h28zm-284 2v-2h-19v1h-1l1 2 1 2 8-1h9zm41 1v-3l-1-2-1 1-1 1h-18v1l1 1 1 2h19zm243-15h-27v8l8-1h13l6 1v-8zm-750-5 1-1-1-1v-2h-4l-1 1v5h3zm29-1v-3h-10l-1 2-1 2 1 1h11zm1041-32v-6l-1-1h-42v-11h-8l-1 2v5l-1 4h-49l-1-1v-10h-4l-2-1-1 1h-1v12h-69l-3 1v9h182zm-328-1v-4h-13v-12h-8v1l-1 1v10h-23v2l-1 1 1 3v3h45zm120 1v-6h-93l-2 1h-1v6l1 2v2l47-1h47zm-330 1v-5h-15v-12l-4 1h-5v10l-1 1v1h-7l-7-1-1 2-1 1v4l1 1 1 1h38zm140-1v-5l-57 1h-58l-1 2v5l1 2h115zm-574 0h4v-4l-1-5h-63l-1-1-1-2-1-3h-4l-1 1-1 2-3 3-4 4 1 2v3h72zm62-1 1-1v-4l-1-3h-16l-17 1h-1v8h34zm1595-46 1-2-1-1h-4l-4 1 1 2 1 2h6zm-141-45 1-32h-1v-1h-10l-2 1v64h2l1 1h5l4-1zm-53 32v-64l-1-1h-5l-6 1h-1v64l1 1h12zm-17-11v-4h-38v3l1 3v2h37zm111 0v-4h-37v8l18-1h19zm-56-1v-3h-35v7h35zm-55-9v-4l-19 1h-18v6l9 1h28zm55 0v-3h-20l-15-1v7h5l6 1h24zm56 0v-3h-37v7l18-1h19zm-56-10v-3h-35v7h35zm56 0v-4h-19l-18 1-1 3v4h38zm-111 2v-4l1-1h-39v7h38zm55-11v-3h-35v3l-1 3h18l17 1h1zm56 0v-3l-1-1-18 1h-19l1 3v3h36zm-111 1v-4h-38v6h1v1h37zm55-10v-4l-18 1h-17v7l17-1h18zm56 0v-4h-38v7h38zm-111 0v-4l-19 1h-19v3l1 3h37zm105-6h6v-7h-38v7h26zm-105-3v-3h-1l-18-1h-19v8l19-1h19zm55 1v-4l-1-1h-5l-6-1-12 1h-11v6l-1 1h35zm-55-9v-1l-1-1-1-2-12-15-13-15h-1l-2 2-2 2-1 3-2 3-1 4-2 4v18h39zm55 1v-3h8v-23l-1-23h-52v46h5l4 1v2h1l1 1h34zm56-10-1-10-1-3-2-4-2-3-2-3-1-2-1-1h-1l-1 1-4 5-4 5-5 6-5 6-3 4-3 5-1 1-1 1v2h38zm-42 6v-2l2-20 3-21v-2h-9v46h3zm-61-5v-39h-9v3l2 10 1 10 1 7v7l1 4v4h3zm67-6 3-8 6-12 5-12-1-1-6-1h-6v1l-2 20-3 20h1zm-76-13-2-18v-2h-9l-2 1h-2l3 7 3 7 5 12 5 12v-1zm78 16v-1h2l9-11 9-12 1-1 1-2-1-1-1-2-3-2-3-2v1h-1v1l-5 12-5 11v1h-1l-1 4-2 4v1l-1 2 1-2 1-1zm-84-7-2-6-3-7-3-7-1-3-1-3-2 1-1 1-3 2-3 3v1l3 3 3 3 5 7 6 7 2 3 3 3v-2zm-71-203h-20 20zm0-2v-1h-1v1h1zm-4-1h-1v1h1zM368 691h5v-9h-2l-3-1h-14l-1 1h-2v5l1 4h11zm160-1h1v-7l-1-1v-1H398v2l-1 1v3l1 3 1 1h128zm-62-18v-81h-1v-1h-4l-1 1v87h6zm-101-38v-43h-4v83l1 4h4zm-107-13v-31l-2-1h-1l-1 1-1 2v62l3-1h2zm1297-155v-90l-1-64h-8l-1 20v19l1 65v66h-38l-1 2v4l1 3h42l5 1zm-13 13 1-1v-4h-32v5h30zm-29-19 1-1v-4h-2l-1 1-1 2v1h-1l1 1 1 1h1zm80-130v-69h-35v5h31l1 1-1 28v29h-31v6h34zM627 194l1-2v-5l-1-1-1-1h-20l-1 4v5l1 1h20zm31 0v-2l-1-1v-2h-3l-1 2-2 1v2l1 1h5zm-31-16 1-1v-7l-1-1-1-1h-20l-1 6v5l1 1h21zm30-6 1-3v-1l-2-1h-3v1l-1 1v2l1 1v1l1 1h2zm607-15 1-4h-69v8h25l24 1h10l9-1zm-94 4 1-2v-6h-45l-16 1v1l-1 1 1 3v2l3 1h57zm-163 1 1-1v-3l-1-3v-1l-1-1-35 1h-35l-1 4v4h1l1 1h35l35-1zm78-1v-8l-26 1h-27v8h52zm156-57V55h-3v1l-1 1 1 46v47l2-1h2zm-273 44v-47l1-44h-7v94h6zm108-45-1-47h-1l-1-1-1 2v93h4zm223-12V56h-3l-3-1v63h3l2 1 1-1v-1zm-583 28v-1h-1v1h-1l1 1v1h1v-1zm762-19 1-1-1-2v-1h-5l-5 1v5h9zm32-2v-3 1l-1 1h-6v2l1 1v2h7zm-366 1487h-1l-2-5-1-5-2-2-1-2-5-5-4-6h-23l-1-8v-7h52l1 2v10l-1 1v1l-2 1h-2v24l-2 1h-1l-3 1h-2zm5-5 1-2-1-9v-8l-1-1h-3v21l1 1 1 1h1l1-1zm-7-17v-4l-5 1h-5l3 5 3 4v1l2 2 1 1 1-4v-3zm12-11v-4h-46l-1 1-1 1v4l1 2v1h23l24-1zm-108 32-1-1v-23l-1-7v-7l1-1h47v14l-2 1h-18l-2 2-3 1-4 6-5 6-2 5-2 5h-3l-4 1zm7-4v-8l-1-5 1-3v-3h-5v10l1 10 1 1v1h1l1-1zm4-9 2-2 2-3 3-2 1-2 1-2h-7l-3 1v1l-1 1v10h1zm33-15v-6l-1-2h-42v1h-1v7l1 1h42zm649 2v-14l1-1 1-1h61l1 1 1 7v7h-1l-1 1h-62zm62-4v-7l-1-1-1-1h-28l-29 1v8l1 1h57zm31 4v-14l1-1v-1h52v2l1 1v12l-27 1h-26zm51-8-1-5-23 1h-24v8l1 1h23l24-1zm1049-8h-63l-1-1v-2h27l23 1 3-1 2-1 1 1 2 1h1v-2h1l2-1 1 1 1 1h46l1-6v-143h-48v2h-3v-4h54v153l-1 1h-49zm56-1v-65l-1-64 1-2 1-2v1h1v108l6 1h6v6h-11l-1 2v12l1 1h29l1-1h1v-14h-5l-5-1v-5h5l5-1v-127h-8v-12l-1-12 4-1h4l2-2 1-1 4-1h5l1 1 2 1 1 1 1 1h43v13l-1 1v1h-43v102h63l63-1 1-1 2-2 2-1h2l2 1 1 1v1l2 1h42v-102h-10l-3-1v-15h34v14l-2 1h-7l-1 1-1 1v15l1 16v69h41l2-2 1-2h3l3 1 1 1 2 2 21-1h20l2-2 1-1 2-1h2l3 2 3 2 54-1 53-1h8l8-1v-102h-46l-16 1-15 1h-1l-1-1v-5l-1-6 3-3 3-4h1l2-1h8l2 1 1 1 1 1 2 1 1 1h3l8-1h26l18-1v-1h1v-26h-29l-28 1h-1l-1 1 1 2v4l-2-1-1-1h-12v-5l-1-5h-5l-1-2v-8h3l2-1v-38h7l7-1v1h1v19l1 18 1 1h2l41-1 41-1v-7l1-7v-51h-16l-1-1v-3l-1-3 1-1 1-2h15l1-3v-27l-1-2v-1l-42 1-43 1h-1l-1 1 1 15v16h1l2 1h23l24-1 1 1 2 1-1 3v3l-1 1h-2l-24 1h-24l-1 1v3h-3l-4 1h-5l-2-1h-1v-22h-6l-1-1-1-1 1-6v-7h7v-89l-1-14h6l7-1 1 1h1v71l1 4v3l49-1h49v-1l1-1v-97h-1l-1-1-26 1h-26l-22 1h-23l-2 1-3 1h-11V929l1-1h7l7 1v73l1 73v9l49-1h49V969l-1-113-49 1h-49v44h-1v1h-14v-2l-1-1 1-42v-45h14l1 15v15l43-1h43V736h-86v34l-1 7v8h-14v-48h-1l-1-1-1-1h-1v-11l1-2 2-2 1-2 1-1v-3h7l3 1h3v2l1 3 1 1h68l1-2v-25h-68l-2 1-1 2v3h-11l-1-1h-2l-1-3-1-2h-2v-15h44l45-1V572h-113v1l-1 1v42h-1l-7 1h-6l-1-22v-22h-54l-1 6v6l1 9v13l-1 23v23l-1 1h-12v-1l-1-40v-40h-42v16l1 17-1 24v23l-1 1h-14v-19l-1-20v-42h-31v3l-1 3 1 18v82l1 1h1l3 1h2v14l-14 1h-15v-15h5l1-1 1-1V573h-31v1l-1 43v63h3l3 1v9l1 6h-69v-13l1-1 1-1h23l22-1V574h-83l1 16v91h15l1 1 1 7v6h-1l-1 1h-13l-1 1-1 1v2h-2l-1 1h-5l-4 1-1-1h-1v-3l-1-1v-1h-17v-7l-1-8h18v-1l1-1-1-58v-58l-39-1h-42l-3 1v8h-3l-3 1h-9v-8l-1-1h-1l-2-1-2-1 1-6v-7l-7 1h-7l-13-1h-13v13l-2 2-3 3-1 1-1 1h-11v-2l-1-3h-11v-3h13l1 1v1l1 2 1 2h5v-1l1-1 1-2v-2h2l2-1v-9h-4v-34l-1-1v-1h-6l-1 1v34h-1v1h-4l-4 1v-3h-1v3h-4l-1-2v-1h-2l1 1v2h-4v-3 1h-1l-1-1v-1h14l2 1h2l1-1-1-18v-18h4l3-1 4 1h3v1l1 1h49v-13l-1-8 1-1h-3l-5-1h-5v-5l1-6v-5h38V322l-1-120h-30l-1-1v-8l1-7h31v-4h8l3 1h3l1 65v72l-1 8 1 3v92l1 1h34V208l-1-49h-4l-5-1-12 1h-14v3h-12l-1 1-1 1v-5h-32v-14l47-1h47V16h-238l-1 1v127l1 1h36l1 7v7h-1v1h-59l-1-1v-3l1-6v-5h6l1-1V51h-48v56l-1 19v18l5 1h6v15h-32v-15h10l1-1V51h-46v94h10v1l1 1v13h-39v-13l1-1 1-2 7 1h8V51h-57v1l-1 1v35h-9v-1l-1-1V52l-3-1h-60l-1 1v92l7 1h8v7l1 7-1 1h-43v-2l-1-3 1-5v-5h16v-1h1V55l1-2-1-1-1-1h-32l-32 1-1 1v92h9l9 1v13l-1 1h-16l-16 1v-1l-1-1 1-7v-7h4V52h-39l-1 2v91h1l2 1h2l1 7v7h-3l-2 1-7-1h-8v-12l1-1 1-2 1-1v-27h-15v1h-5l-1-1h-15v27l1 1 1 1v13h-7l2-1 2-1 1-2 1-2-1-2v-2h-2l-2-1v-2l1-2v-34l-1-35V62l1-12h41l1 1v96l-2 1-1 1v9h13l1-1v-7l-1-1h-1l-2-1h-2l1-22V50l22-1h23v99h-2l-2 1v1l-1 1v5l1 1 1 1h26v-5l1-5h-20V58l1-6v-3h71l1 1v13l-1 13v58l1 14h-17l-1 2v5l1 2h38v-5l-1-4h-15v-3l1-3V96l-1-45 1-1v-1h34l34-1 1 18v18h1l1 1 1-1h2l-1-14V56l1-4v-4h62l1 1v49l1 48-1 1-1 1h-15l-1 1v8h2l2 1h11l12-1h6v-9h-5l-5-1h-1v-1l-1-48V49h1v-1h12l11-1 14 1h14v1l1 1-1 23v74h-6l-4 1v9h27v-5l-1-5h-10v-1h-1l1-2v-1l1-5 1-6-1-35-1-36V48h54v98l-4 1-4 1-1 4v4h1v1h55v-1l1-3v-4l-1-1-1-1h-36V80l-1-67h245v132l-1 1-1 1h-90l-1 1h-1v7l1 1h80l1 135 1 135h-1l-1 1h-16l-16 1-4-1h-5v-51l1-43V187l-1-2h-8v2l-1 2h-15l-14 1h-1l-1 1v4l1 4 15 1h15l1 73v204h-38l-1 1-1 1 1 4v4h6l6 1 1 1v30l-1 30-1 1-2 1h-1l-1 2-1 1 1 2v2l2 1 2 1 1 1 1 1v5l1 1v1h8v-9l45-1h44l1 1v61l1 61-1 1h-17v1l-1 1v8l2 1h16v2l1 2 2 1h3l2-1 1-1 1-2 1-1h13l1-1h1v-10h-17V571h1l42-1h44l1 1v111h-40l-3 1h-3l-1 3v5l1 3h29l29-1h4v-9l-1-1h-4l-3-1V574l1-4h38v2l1 3v106l-1 1-2 1h-3l-1 1-1 2v6h22v-3l1-2-1-2v-1l-1-1v-1h-5l-1-54v-53l1-2v-3h37v80h1v1h8l1-1v-80h23l22-1 1 1h2v79l1 1 1 1h2l2 1 1-1 1-1v-79h1v-1h60l1 21v22h1l3 1h3l1-1v-43l1-1h60l59-1v113l-45 1h-45v3l1 3 1 1 1 2 2 3 2 3h1l2 1 2-1 1-1 1-2v-2h1v-1h36l35-1 2 1h2l1 16v15l-1 1-1 1h-75v-3l-1-3-3-1h-2l-2 1-1 1v2l-2 3-3 2v5l1 1 1 1h2l2 1v14l-1 14v20h1l2 1h6v-51h92v1l1 1v51l-1 51v7h-1l-2 1h-89v-29h-8l-1 1v82h1l1 1h7v-45h1l51-1h53v66l1 66v50l-1 50-49 1h-49l-3 1h-4V932h-8v161h8l1-2 1-1v1h2v1h8l39-1h38l8-1h9v104h-1l-52 1-52 1-1-39v-39h-7v1l-1 1 1 65v66l1 1h3l2 1 1-1 1-1 1-2v-1h25l25-1 1-1 1-1-1-1h-18l-18 1h-15l-1-1v-38h1l45-1h45l1 18v19l-1 1v1l-6-1h-9v3h1l1 1h11l3 1v70h-33l-29 1-28 1-1-1h-1v-38h-4l-4 1h-1v38h-4v1l-1 1v2h7v12h4l2-1 1-1 1-1v-4h45l20-1v34h-7l-1 1h-57l-1-2-1-2-1-1-2 1h-3l-3 3-3 3v7h1l1 1 38-1 37-1h1l1 1v53l1 54h-1l-1 1-63 1-64 1-2-2-2-1h-3v1l-1 1-1 1h-23l-22 1-2-2-1-2h-2l-2 2-1 2h-46v-107l2-1h6l3-1v-8h-27l-1 1-1 4v4h6l6 1v53l1 54h-1v1h-47l-1-2-1-2-1 1h-2v1l-1 2h-2l-64 1-65 1v-1l-1-1v-106l1-1h21l22-1v-3l1-3v-2l-1-1h-43l-1-1-2-2h-4l-2 1-1 2h-4l-4 1v1h-1v17h1v1h5l4 1v110l-1 40v2l-1 2h-35zm395-316v-4h-4l-1 1v7l2 1h3zm-462-682v-3h-48v6h48v1zm0-8v-3h-49v5l1 1h24l24-1zm0-9v-3h-24l-24 1-1 3v3h49zm-13-5h14v-6h-50v7l11-1h11zm-539-411v-6h-15v11h15zm-21-1v-5h-8l-7 1v10h7l8-1zm0-12v-5h-16l1 5v5h15zm21 0v-5h-15v10h15zm-21-12v-4h-16v8h16zm21 0v-5h-8l-7 1v8h15zm-20-11v-5h-8l2 1h1l-1 1-2 1h4v1h-1l-1 1-1-1-1-1v2h-1l-1-2v-1 2h-4v-2l-1 1v2-5h-1v5l-1 4h17zm20 0v-5h-15v9h15zm-9-2h2v1h-2zm2-1v-1h-2 5-1v2h-2zm4-1h2v1h-2zm3-11v-7h-37v15h19l18-1zm-972 1453h-2v-31l1-31h-1v-1h-49l-1-5v-5h3l24-1h23v-43h-14l-1-1h-1l1-7v-7l1-1h42v1h1v14h-1v1h-17v3l-1 2 1 19v19h12l1 1 1 1v8l-1 1h-13v33l1 29-1 1h-8zm5-60v-58h-2l-1 1v113l1 1h2zm-7-8v-3h-47l1 1v3l1 1h45zm19 2h4v-4l-1-1h-10l-1 2v2l1 1v1l2-1h2zm7-58v-5l-1-1h-37v10h37zm1745 73h-2v-82h-31l-30 1-2-1h-1v-15h72l6-1 3 1h4v14l-1 1h-10v82h-4l-3 1zm5-17v-67l1-1h10l1-2v-8h-46l-17 1h-17v9h63v1l1 40v41h4zm99 15-1-1v-75l1-2v-2l-1-1v-1l-4 1h-8v-7l-1-7h1l1-1h5l5-1 1-1 1-2 1-1 1-1h6l1 2 1 1v2l3 1h40l14-1h1l2-1-1-1v-1l3-2 2-1h7l1 1h2l3 4 3 3v12h-26v1h-1l1 38v38l-1 3v2h-2l-2 1-2-1h-2l-1-2-1-2v-77h-42l-1 1-1 1v25l1 24-1 15v15l-1 1-1 1h-6zm6-2 1-1v-82h48v1l1 1v2l-1 2v23l-1 23 1 14v15h6v-2l1-2v-77h25v-3l1-4-1-1-1-1h-1l-2-3-3-2-2-1h-4l-1 3-2 2-24 1h-39l-1-3-1-2v-1h-1l-2 1-1 2v3h-10l-1 1-1 1 1 3v4l5 1h6v41l1 40 1 1h1zm-288-54-1-2v-13h3l2-1h1l1-1v-18h-57l-1-2-2-1-4-1h-4v1l-1 1v11l-7 1h-7v4l-1 4 1 1 7 1h7v1l1 1v2h-3v-1h-13l-1-1-2-1v-11l1-2 2-1h12l1-1v-10l2-1h12l1 1v1l3 1h29l26-1v25h-3l-2 1-1 1v8l1 1v1l-1 2h-1l-1 1zm-1527 6h-2v-14h-15l-1-1v-1l-1-4v-5l1-2v-3h90v7l1 8-32 1h-32l-1 7v8h-7zm5-4 1-2v-8h-4v12h3zm64-18v-5h-42l-42 1v3l-1 4 1 1v1l42-1h42zm1333 4-1-1-16 1h-16l-35-1h-274l-1-1v-6l-1-6 1-1v-2h64l1-1v-6h13l1 1v3l1 2v1l1 1h46v-71l-1-15-23 1h-24v55l-6 1h-5l-2-1h-1v-8h-47l-12-1h-49l-49 1h-1v1l-1 4v3l-7 1h-7v-1h-1v-54l-1-1h-23l-22 1v83h46v-7h15v6l1 1 1 1 31-1h30l1 1 1 1v14h-176l-84 1h-96l-7 1h-7v-15l-1-1h6l2-1h1l1-2 1-2h12l1 2 1 2h3l4 1h12v-38h-10l-9 1v1h-1v2l-1 2h-6l-6 1-1-1-1-1v-4h-3l-2-1h-3v-15h8v-128l-1-116 1-1v-1l14 1h13v-1l1-1-1-52v-51h-27l-1-1V742l-3-1-3-1-1-3v-7l1-4h4l2-3 1-3 2-1 1-1h9l1 1 1 1v2l1 3 1 1h87l87-1v-3l1-2 1-2h7l1 2 1 2v3l5-1h5l-1 7v8l-1 1h-8v1h-1v45l1 44h63v-90h-4l-3-1-1-4v-11h89v48l27-1h27l1 1h1l-1-24v-24h49l46-1 1 8v7h-3l-2 1h-3v90h1l1 1h61v-92h-9v-15h206v1l1 6v6l-1 1v1h-2l-2 1v51l-1 49 1 65v65l-1 1v1h-27v50l1 12v1l-1 20v21h26l2 2 1 2-1 4v208h-1l1 1v2l-1 1h-2v3l1 1 1 1v2l-1 2 1-1h1v8l1 7v1l1 2 2 1 1 1 1 4v7l-1 2-4 2-3 2-5 1h-4l-2-2-1-1-2-1-2-1h-4v39h7l1-1h1v-2l1-1 1-1h8l2 2 2 2h4l4 1h3v15h-9l-9 1v-3h14l1-1 1-1v-8h-6l-5-1-1-1-1-2-3-1h-3l-1 2-1 2h-1l-1 1h-153l-24-1h-25v-63l-1-78v-78l-1-7-1-7-1-5-1-6-2-5-1-5-2-7-3-7-4-8-4-8-3-5-4-5-2-2-2-3-5-6-5-6-4-4-5-5-3-2-4-3-9-6-9-6-5-3-5-2-1-1-1-1v-37l1-38v-1l1-2 5-5 6-5 4-5 5-6 2-3 2-3 4-7 3-7 3-7 2-7 2-7 2-6v-8l1-7 1-12v-18l1-4h72v-2l1-1v-97h-4l-1 1v93h-69v-64l1-14v-14l-1-1-3-1h-2v2l-1 1v33h-12v5h1l1 1 2-1h2l3 1h3v97l-1 6-1 5-1 6-2 4-1 4-1 3-1 3-3 7-4 7-2 4-2 3-6 7-5 6-7 7-7 6-5 2-5 3-2 1-1 1v4l1 1 3-1 3-1 3-2 3-2v1h1v68l-1 1-2-1-3-1-5-1-6-2-5-1-5-1-4-1-4-1-7-1h-8l-7-1h-6l-12 1-13 1-1 1h-1l-6 1-6 2h-4l-4 1-1 1-2 1v-1h-1v-63h1l2 1 3 1 1 1h1l6 2 6 3h3l3 1 2 1h1l4 1 4 1h12l11 1 8-1 7-1 1-1h1v-4l-1-1-8 1-8 1h-5l-5 1-11-2-11-2-5-2-6-1-5-2-5-3-3-1-3-2-6-4-6-4-7-7-8-7-4-8-5-7-1-2-2-3-1-3-2-4-1-5-2-4v-2l-1-2-1-6-2-6v-7l-1-6v-91h6l7 1v-6l-7-1h-6v-33l-1-1v-1h-3l-2 1v93h-35l-35 1v-43l1-42v-12l4-1h4l1-5v-4l-5 1h-4v-7l-2-1h-1l-1 1h-1v3l-1 3-90 1-90 1-1-1v-3l-1-4-1-1h-3l-3 1v2l-1 1v4h-3l-3 1v1l-1 1v6h1l1 1h5v232h29v110h-14l-14 1-1 25v25l1 97v98h-4l-4 1-1 1v6l2 1 1 1h4l1 2 1 2 1 1 1 1h5l1-1 1-3 1-2 104-1 105-1h1v22l-1 21-105 1-105 1v-5h-7l-1 1-1 2v1l-1 1h-3l-3 1h-1v8l1 1 182-1 181-1v-8l-1-1-1-1h-62l-1-2v-3l-1-1v-2l-3 1h-3l-1 1v2l-1 1v2l-1 1h-25l-25 1h-1l-1-45v-44l1-1v-1h52v1h1v54l3 1h4v-1l1-4v-4h33l33-1 7 1h49l43-1v7l1 1v1h6v-1h1v-54h53v1l1 1v87l-1 1h-53v-6l-1-1v-1h-3l-3 1h-1v7h-64l-1 1-1 4v4l1 1h255l39 1 21-1h21l3 1h3v1l1 1-1 1v1h-1zm-51-16v-1l-1 1h-1 3zm7 0-1-1-1 1h-2 6zm11-1h-4l-2 1h8zm9 0h-4l-2 1h9zm9 0h-3l-2 1h7zm-173-6v-8h-7v15h7zm6 7h2v-8l-1-7h-5v15h3zm11-8v-7h-7v15h7zm10 0v-8h-4l-3 1v15h3l4-1zm64-11v-19h-17v38h17zm11 11v-8h-8v2l-1 1 1 6v7h8zm8 7v-15h-5v15h2l2 1zm10-7v-8h-8v15h8zm9-1v-7h-7v15h7zm-138 1v-7h-5v11l1 4h4zm44 4v-4h-2v-1h2v-7h-7l1 8v8h3l4-1zm10-4v-8h-8v15h8zm9 0v-8h-7v15h7zm10 4v-3l-1-1v-1l-1 1h-2l1-1v-1h2v-5l-3-1h-3v7h3l-1 1h-2v7h7zm8-5v-8l-1 1h-5v15h6zm66 4v-4h-3v-1h2l1 1v-7h-7v14l1 1h6zm9-4v-7h-7v15h7zm10 0v-7h-7v15h7zm9 4v-4l-1-1-1 1h-1l1-1h2v-6h-4l-3-1v7l2 1h2-4v7l1 1h6zm8-4v-8h-6v16h3l3-1zm-678 9h1v-15h-6v16h3zm10-7v-8h-7v15l4 1h3zm10-1v-7h-7v15h7zm70-11v-18l-11-1h-12v38h23zm15 12v-8h-6v14l2 1h4zm59-1v-7h-8v14h8zm8 0v-8l-3 1h-2v7l1 7 1 1h3zm5 7 1-1v-13h-2l-2-1v16h3zm-148-3v-4h-3v-1l1 1h2v-4l-1-3h-6v15h7zm9-4v-7h-8v15h8zm9 0v-7h-7v7l1 8h6zm10 4v-3l-1-1h-3 1v-1h2v-6h-6v7h3-3v8h7zm8-4v-8h-1l-1 1h-4v15h6zm32 0v-7h-5v15l2-1h2zm18 0v-7h-9l1 3v11h8zm8 0v-7h-6v14h6zm10 0v-7h-7v14h8zm10 0v-7h-7v14h7zm9 6v-8l-1-5h-6v14h7zm2-6v-7h-1v12l1 2zm349-21v-8h-1l-2-1h-2v1h-1v16h2l1 1h4zm18 0v-9h-2l-1 1h-3v-1h-1l-1 1 1 8v8h7zm10 0-1-8-3-1h-4v8l1 9h7zm8 0v-8h-7v16h7zm10 0v-8h-8v16h8zm9 0v-9h-3l-4 1h-1l1 8v8h7zm9 0v-9h-6v17h6zm9 0v-9h-7v8l1 8 2 1h4zm30-1v-8h-9v16h4l3 1h2zm18 0-1-8h-7v16h3l3 1h2zm9 0v-8h-8l1 8v8l1 1h6zm9 0-1-8h-6v17h7zm9 0v-8h-7v16l1 1h6zm10 0v-9l-4 1h-4v9l1 7h7zm8 0v-9h-3l-3 1v16h6zm9 0v-9h-6v17h6zm-183 1v-8h-2l-2-1-1 1h-1l1 7v7h-1v2h6zm16-1v-8h-4l1 1h1-4v7l1 6v3h5zm102 0v-8h-3l-2 1v14l1 1h5zm-603 2v-9h-7v16l3 1h4zm10-1v-8h-8v8l1 8v1h7zm8 1v-9h-7v9l1 8h6zm10 0v-9h-4l-4 1v15h1v1h7zm9-1v-8h-7v9l1 8h6zm9 0v-8h-6v16h3l3 1zm9 0v-8h-7l1 8v8h4l1 1h1zm-65 0v-8l-3 1h-3v6l1 7v3l3-1h2zm97-1v-8h-5v16h5zm7 0v-8h-5v16h6zm10 0v-8h-8v15l1 1h8zm9 0v-8h-7v15h2l1 1h4zm9 7h1v-15h-7v16h3l1-1zm11-7v-8h-8l1 8v8h7zm9 0v-8h-8l1 6v10h7zm12 5v-8l-1-5h-7v15l4 1h4zm8-5v-8h-6v7l1 7v1h3l1 1h1zm6 6v-14h-5l1 8v8h4zm-24-6v-8h-1v14l1 1zm544-7h2v-3l3-1 2-1 1-2v-3l-1-1-1-2-2-1h-2v-11l-1-12v-6l1-31v-91l-1-60v-17l-1-17h-26v-40l-1-39 1-16v-16h26v-35l1-72V736h1l2-1 2-1v-8h-129l-36 1h-36v7l1 1h117l34 1h34l1 110v112h-27l-1 1v129h1v1h27l1 42v194l-29-1h-172v5l-1 5h199l2 1h1v2l2 1 1 1h2zm-703-1-1-1v2h1zm693-16h1l-1-115v-115l-13 1h-13l-2-1h-1l1-21V955h27V738h-167v102l-1 1h-73v16l-1 16v7l-1 7-2 5-1 5-2 7-2 6-4 8-4 8-2 3-1 3-4 6-4 5-8 8-8 8v72l1 2 7 3 6 4 7 4 6 4 3 2 2 1 9 10 10 9 5 6 4 6 3 4 2 3 3 6 3 5v1l1 3 2 2 2 6 2 6v1l2 4 2 3 1 7 2 7 1 8 1 8 1 83v82l7 1h191zm-297-324v-30l-1-1-4 3-5 2h-3v-11l2-2 3-1 4-3 5-2 5-4 5-4 5-7 6-6 4-5 3-5 3-7 4-7 1-4 1-3 2-6 1-6 1-7 1-8v-90h-6l-6-1v-10l6-1h6v-32h-35v33h4v11h-140v-1l-1-4v-5h1l1-1v-33h-30v32h1v1h2l2-1 4 1 4 1v9l-1 1h-12v90l1 5 1 4 1 8 2 8 1 5 2 5 1 1v2l3 6 3 5 3 5 2 4 10 9 9 9 6 4 6 4 4 2 5 2 6 2 6 2 7 2 7 1 5 1h23l5-2 5-1h1v12l-1 1h-1l-4 1h-33l-8-1-8-2-6-2-6-2-4-2-5-2v2l-1 1v52h3l3-1 3-1 6-1 6-1 2-1h3l12-1 12-1 13 1h13l3 1 3 1 5 1 4 1 3 1 3 1 5 1 5 1 1 1h1v-1zm10-220 1-3h-1v-1h-54l-53 1h-15l-14 1v5h1l1 1 67-1 66-1zm-119-7 1-2v-9l-1-10v-9l1-1h-8l1 1v27l1 4v1h2l3-1zm79-8v-4 13-6zm-88 9v-1h-3l-3 1h6zm19 0-1-1h-6v1h7zm8-1 1-2h-3v1l-1 1h-2l-1 1h4zm-28-2v1l1-1v-29h-6l1 1h1v3l-1 3h2v1h-2v13l1 1v6l1 2 1-1 1-1zm-3-24h1v1h-1zm1-2-1-1h1l1-1v1l-1 1v1zm27 26-1-1 2-1 1-2-1 1v2h1l1-1 1-1v-25h-5l-1-1h-1v2h6-3l-3 1v2h1l-1 1v22h2v2h1zm-1-21-1-1h2l1 1h-1zm96 19 1-1v-1l-1-1h2v-2l-1-1-1-2h1l1-1v-4h-2v-1h2v-1l-1-1v-1h-2l1 1h1l-1 1h-2 1v-1h-1l-1 1v12h1l1 1 1 1-1 1-1 1h2zm-103 0v-1h-2v1l1 1h1zm97-6v-6h-1v-2l1 1v1-4l-1-1 1-1v-4h-1l-1 1-1 1 1 1h1l-1 1v1l1 1-1 1h-1l-1 1h-2v-1l2-2 1-3v-5h-2v6h-1v18h3l2-1h-1v-4l1 1 1 2-1 1v2h1v-1zm-5 3v-2l1 1 1 2h-1l-1 1zm-90 2v-2h1v-10l-1-1-2-1-1-2v2l1 2h-1v-1 4l-1 1-1 2h2l-1 1v1-1l-1-1h-1v3h2v1l1 1h2v2h1zm84-2 1-2 1 1v1-12l-1 1-2-2-1-1v-1h-1l-2-2-1-1v6l1-1v-1 2h-1v14h2l2-1v1l-1 1 1-1h1zm-5-1v-2h1l1 1v2h-1zm3-1v-1h1v1l1 1h-2zm2-7v-1h1l1 1v1h-2zm14 10v-1 3-1zm-22 0h-1l-1 1h2zm-81-1h-1v1l1 1v-1h1zm79-3 1-1h-2v1h1zm30-1v-1h-1v2h1zm-29-4v-2 2h-2 1l1 1-2 1-1 1h4zm-80 2 1-1h-1l-1-1v3h1zm109-6h-1v2h1v-1zm-109 1v-1h-1v2h1zm79-3-1-1v1l-1 1 1 1 1 1v-1zm26-1 1-1v1l1 1v-1h1l-1-1h-1l1-1v-1l-1 1h-4l1 1 1 1h-1v2zm-14-1v-1l-1 1v1l1 1v-2zm0-2v-1h-1v1l-1 1h2zm9-2v-1h-1v1h1zm-11-1h-2v1h2zm-83 0h-1v1h1zm94-3h-7l2 1h4zm-94 1v-1h-7l1 1h6zm83-1h-6 9zm19 0h-6 8zm56-8v-4h-90v6l1 1v1h1l2 1 43-1h43zm-150 4h1v-8h-42l-41 1v8h80zM663 1406l-1-1 1-7v-7h-48l-47 1v12l-1 1h-5l-5 1-2-1h-1l-1-7v-6h-28l-1-8v-7h43l1-1 1-1v-3h6l6-1 1 1 1 1v1l1 2h77l2-3 1-2h12l1 1v6l-1 5h21v14l-1 1h-23v4l-1 4h-4l-5 1zm7-3v-5l1-3h22l1-1h1v-8h-21v-12h-2l-2-1-1 1h-2l-1 1v1l-1 2-1 1h-40l-40 1-2-1h-1l-1-2-1-2h-7v1l-1 2-1 1-1 1h-42v8l1 1h27v1l1 5v6h1l1 1h6l1-1v-12l49-1h52v16h3zm1071-10v-15h143v14l-71 1h-71zm141-7v-4h-1v-1h-136l-1 3v4l1 2h136zm-563 8v-13l1-1h10v15h-10zm9-2v-9h-1l-1-1h-2l-2 1v9h5v1zm22 2-1-1v-6l1-7h10l1 1v14h-11zm8-3h1v-4l-1-4h-6v8l1 1h4zm-948 1v-15h94v15h-93zm93-8-1-4h-89l-1 2v6l1 1h90zm2350-10 1-1v1h1-3zm-964 3h1l1 1h-3zm16 0h1l1 1h-3zm1437-38h-3v-3l1-1-3-1h-2l-96 1-96 1h-53l-53 1v1l-1 1-1 1-1 1h-10l-1-2-1-1-1-1-1-1-41 1h-41v2l-1 2h-11l-3-2-3-1-1-2-1-1v-13l1-1h4v-14l1-2h13l1 8v8l1 1 42-1h41v-117l-1-117v-1h-42l-40-1-1 1v198h-15v-20l1 1 2 1v15h9v-198h90v120l1 120-1 1h-90l1-7v-8l-1-1h-8l-1 1v13l-2 2-2 1-1 1-1 1v4l2 2 1 2 3 2 2 1h2l2 1 2-1 2-1v-3h88l2 2 1 2h6l1-2 1-2 104-1 104-1 50-1 49-1v4l2 1 1 2h4l1-2 1-1 1-2 1-2h3l1-2 1-1v-5h-1v-1h-3l-3-1v-71l1-16v-16l-1-90v-91h-5l-4-1v41h-33l-33 1V967l1-1h29l30-1 3 1h3v41l1 1v1h8V734l2-1 2-1 1-2 1-3-2-1-1-2h-3l-1-3v-2l-1-1v-1h-5l-1 1h-1v5l-1 1-1 1h-193l-111 1h-1l-2-1-1-2-1-2-1-1h-2l-2 1h-2v4l-2 1h-87l-1-2v-3h-7l-5 4-4 4 1 3v2l3 1 3 1v23h8l1-12v-11l1-1h89v60h-2v3l1 1 1 1 1 24v23l-2 1h-2v1l-2-1h-31v4l1 1h35v111h-18l-17-1v1h-1v2l1 1h15l16 1h4v56l1 54h-1l-1 1h-86l-2-1v-39h-1l-1-1h-4l-3 1v101l-1 48v48h-2v-201l7 1h7v19l1 20h1l1 1 40-1h41V970h-34v-9h34V856h-33l-2-1v-9h2l2-1h32v-44h-1l-2-1-41 1h-41l-1 1 1 22v21h29v2l1 2v5l-1 1v1h-29v52l1 52 2 1h13l12-1 1 1 1 1v8h-6l-5 1h-18v15l-1 15v14h-14v-83l1-7h-1l-1-1V782h14v9l1 1h85v-27l-1-27-42 1h-42l-1 3v20h-14v-23h-2l-2-1-1-1-1-1v-10l4-4 5-4h8l2 1 2 2v1l1 1h40l20 1h22l1-1 1-2v-3h12l1 2 1 3h5l124-1 124-1h49v-2l1-2v-2h6l5-1 2 1 1 1 1 1v4l3 1 2 1v12l-3 1-2 1v275h-7l-4-1h-4v-42h-1v-1l-29 1h-30l-1 1v103h2l2 1 28-1h28l1-1v-39h8l7-1v153l1 33h5v1h1v14h-5l-1 1-1 29v53l1 1 1 1h2l2 1v4l1 4-1 2v3l-2 1h-2l-1 3-2 2-1 1h-4l-4 1zm17-109v-8l-1-1h-4v8l1 2h1l2-1zm-425-223 1-5v-17l-1-17h10l10-1 4 1h4l1-1h2v-3h-30v-1h-1V853h29v-1l1-1v-3h-30v-63h-9v55l1 54-1 12v12l1 33v33l-1 9v14l1 5h3l4 1v-1h1zm-1749 341h-2v-5H997v-15h6l3-1v-15l-1-16h-8l-1-1v-13l1-1h6l3-2 2-2h11v1h1v25l1 24 3 1h3l76-1h76l1-25v-25l1-1h5l6 1 2 1 2 2h8l1 3v11l-1 1h-8l-1 1-1 1v15l1 15h9v14l-3 1-2 1-2 3-1 2h-3l-3 1h-3zm8-3 1-1 1-2 1-2 3-1 2-1v-8h-4l-4-1h-2v-36h1l2-1h8v-8h-1l-1-1h-5l-2-1-1-1-1-1-2-1h-6l-1 3v47l-2 1h-82l-80 1v-1h-1v-50h-5l-2 1-3 1v1l-4 1h-3l-1 1v8h6l4 1v36l-1 1h-7l-1 1v7l1 1h69l68-1 24 1h23l1 2v2l1 1 1 1h3zm55 3h-3l-3-1v-2l-1-2-3-1-2-1v-14h4l1-1v-15l1-15h-3l-2-1h-3l-3-1v-12l1-1v-1h9v-2l1-1-1-39v-39l-1-7-1-6v-2l-1-1-1-6v-5l-1-1v-1l-2-4-1-4-2-6-2-7-3-6-3-7-3-7-4-6-3-6-4-6-4-5-3-5-7-6-6-7-7-5-6-5-6-4-5-3-7-4-7-3-8-3-7-2-7-2-6-1-8-1h-33l-9 2-9 2-8 3-7 2-3 2-3 1-7 4-7 3-4 3-5 3-5 3-5 4-9 10-10 9-4 6-4 6-2 3-2 2-1 2-1 2-4 7-3 7-3 9-4 9-2 11-1 10-1 2v98h1l1 1h7v15h-4l-3 1h-1l-1 1v27l1 1v2l2 1h2v13l-2 1-2 1-1 3-1 2h-14v-5h-90l-87 1-1-1v-13l1-1 1-1-1-2-1-2-3-4-4-4-3-4-3-4-5-7-6-6v-1h-1v-1 35l1 1h7v11l-1 4-1 4-1 1-2 1h-12v-5l-1-1h-7l-6-1v-14h7l1-40v-39l-1-77v-77h-10v-3h12l1 6v232h-3l-4 1h-1v7l1 1v1l7-1h6v5l2 1 1 1h5l2-1 1-3 1-4v-7l-3-1h-5l-1-97-1-96 1-23v-22h19v2h-9l-7 1v91l1 92 2 2 2 3 8 9 7 9 8 10 8 9 3 4 3 3h9l1 1h37l1-1h1l56-1h57v-20l-1-67v-67l1-5v-5l1-4 1-3 1-4 1-4 2-7 2-7 1-1v-1l3-6 3-6 3-7 4-6 2-3 2-4 6-6 5-7 5-5 5-4 7-6 8-6 5-4 5-3 8-4 8-4 5-3 6-2 5-2 4-1 7-2 7-1 3-1 4-1 7-1h21l14-1 6 1 6 1 9 2 9 2 7 2 8 3 9 4 9 4 5 4 6 4 3 2 3 2 6 5 5 5 6 6 5 6 3 4 3 4 4 6 4 6 2 4 2 3 5 10 4 9 1 4 2 4v2l1 2 1 2 1 3 1 5 1 5 2 10 2 10v66l1 65h83l76-1 1-5v-5l8-8 8-9h45l3 1 2 1v-1l-1-126V866l-1-92 1-3v-4h-1l-5 5-5 5h-2l-2 1-4-1h-3v-10h4l2-1 2-1 7-7 6-7 1-2 1-2-1-1-1-1h-20l-1-1v-15h21l1-1v-13h20l4-1 3-2h3l3 1h1l1 1v1l1 1h15v14l-1 1h-35v102l-1 16h7l9 1h22v9h-18l-19 1-1 1 1 165 1 165h45l46-1v-36h14l1-1 1 55v55l-1 1h-7l-7-1-1-30v-30l-1-1h-90v69l1 55 45-1h45l1-20v-21h15v21l1 20 2 1h2v15l-61 1h-63l-3-1v-12h-1l-4-1h-3v-14h4l4-1v-9l-3-3-2-2-2-1-1-1h-39l-3 4-4 4-1 2-1 2 1 2v2h27l1 1v14l-100 1h-99l-1 9v9h-1v1h-7zm5-4 1-2v-15h98l98-1h4v-9l-1-1h-1l-99 1h-99l-1-66v-67l-2-8-1-8-1-5-1-5-2-6-1-6-2-5-2-5-1-2-1-2-4-8-4-8-4-6-4-7-2-2-1-3-6-6-5-6-3-4-3-3-7-5-6-6-3-2-4-2-6-4-6-3-3-2-4-2-6-2-7-3-5-1-5-2-9-2-9-2h-12l-12-1-10 1-10 1-9 1-9 2-6 2-6 1-5 3-6 2-6 3-7 3-7 4-8 4-7 6-8 6-7 6-6 7-6 8-6 8-2 2-1 3-2 2-1 2-1 2-1 2-4 8-3 8-2 5-1 5-2 7-1 6-1 3-1 3v164l-1 1-83 1h-89l-6 1v8h16l15 1 73-1h74l1 2 1 3h3l2 1 1-1h1l1-2 2-3 1-1 2-1v-2l1-1-1-2v-3h-4l-1-1h-1l1-18v-18l1-1h8v-1h1v-7l-1-1h-8l-1-1h-1v-96l2-9 1-8 2-7 1-8 3-8 3-8 2-3 1-3 3-5 3-5 3-5 3-5 5-5 4-6 7-7 6-7 5-3 5-4 4-3 5-4 5-2 5-3 4-3 4-2 6-2 6-3 5-1 4-2h3l4-1 3-1h3l4-1 4-1h34l10 2 11 2 5 2 4 1 6 3 6 2 2 1 2 1 5 3 5 3 3 3 4 2 4 3 5 4 6 6 7 7 3 4 3 4 1 2 2 1 3 5 3 4 2 3 2 3v1l1 2 1 2 2 5 3 5 1 4 2 3 1 4 2 5 3 9 2 8 1 4 1 4 2 10 1 11 1 37v36l-1 5v4l-4 1h-6v7l1 2h4l5 1h1l-1 18v18h-2l-2 1-1 1v7l2 1 2 2 2 2 2 2h5zm354-6 1-1-1-4v-4h-2l-2-1h-1v-40h-1v-1h-7l-1 1v20l-1 20h-97v-128l-1-128V901l-1-172v-1h37v-1l1-1v-7l-1-1h-13l-2-2-2-3-1 1h-4l-1 2-1 2h-20v1h-1v13h-20l-1 1-1 2-1 1v2l1 3v1h20l1 1h1v152l1 120v301h-7l-1 1v8h1v1h7v12h19l18 1h41l42-1zm-830-9-2-3-1-2-14-17-14-17-3-3-3-3v5l1 2 1 2 5 5 4 5 4 5 4 5 7 8 6 8h1l1 1h3zm647-19 1-2 1-3 2-3 4-4 3-4h4l5-1 16 1h16l3 2 3 2h1v-4l-1-2-1-2-2-1-2-1-21 1h-21l-7 6-6 7-1 2-1 3v6l1 1 2-1h1zm177-83 1-35-1-17v-18h-8l-1 1v92l1 5v5l3 1h5zm-12-30v-2h-90l-1 2v2h90zm-58-343v-2h-33l-1 2-1 1 1 1v1h34l1-1zm-61-81 3-2 4-4 5-5v-1l1-2-1-1v-2h-1l-6 6-6 6-3 1-4 2v2h1l2 1v1h1l2-1zm-900 578-2-1v-1l-1-2v-2h-23l-1 1-138 1H268l-1 2-2 2-2 1h-6l-2-1-4-3-4-4v-11l2-1 2-2 1-2 1-2v-4l-1-5v-65l-1-65 1-1v-2l1-11v-11l-1-2-2-2-2-1-2-1v-12h1l1-1 1 1h1l1-1 1-1-1-19v-19l-2-1-3-1v-13l2-1h1l1-1 1-1 1-3v-2h2l2-1h3l3 1 1-12v-11l1-1h33v-35l1-1h-34l-1-15v-14h-10l-1-1-1-1v-2l-3-2-2-1v-1l-1-1 1-6v-6h2l2-1 1-1v-38l-1-6-2-1-3-1 1-6v-8h3l2-1-1-78v-79l-2-1-1-1-1-1-1-1v-12h1l2-1h2v-5l1-5v-2l2-1h11v10l1 1 1 2 2 1 2 1 2-1h29l27-1h340v-15h12l1 1 1 6v7h6v15h-3l-3 1v13l-1 1h-13v-14l-4-1h-3l-39 1h-40v227h82l3-1 1-5v-4h1l1-1h6l6-1v1l1 1v10l4-1h4v15h-8v16h-13l-2-1-1-1v-13h-24l1 12v11l-1 2v1h-4l-1 1v32l1 1h3l1 1h1v30h24v-14h15v40l-6 1h-7l-1-1-1-1v-9l-1-1h-81l-1 1h-2v232h86v-30h8l7-1v30h11v15h-1l-1 1h-15l-1 1v1l-1 1v2l-1 1h-11v-2l-2-2-2-2h-36l-36 1h-4l-1 3v2h-1l-1 1h-9zm9-3 1-1 1-2v-2l41-1h42l1 1v4l1 1h6l1-1 1-2v-3h9l9-1v-8l-6-1h-5v-29h-2l-3-1h-2l-1 1-1 15v14l-45 1h-46l-1-1v-1l-1-117v-118l1-1h46l45-1v5l1 6h1l1 1h6v-36h-8v1l-1 1v12l-46 1h-45l-1-48v-47l1-1 45-1 44-1 1 1 1 7v7h1v1h8v-15h4l4-1v-1l1-1v-7h-9v-11h-4l-2 1h-3v10l-46 1h-46V865l-1-114 1-2v-3l45-1h46v1l1 6v8l1 1h3l4-1v-15h5v-1l1-2v-4l-1-1v-1h-5v-7l-1-7h-7v1l-1 6v7l-67 1H262v-7l-1-6v-1h-3l-3 1-1 1v12l-3 1h-2l-1 1h-1v2l1 2v2l1 1 2 1 2 1 1 81 1 81-3 1-2 1-1 1-1 1v3l1 3 1 1 1 1h4l-1 25v26h-1l-3 1-2 1v3l1 2v1l2 1 2 2 1 2 1 2h1l2 1h2l2-1v-1l1-1v-3h65l1 49v54l-1 4h-64l-1-1v-5l-4-1h-3l-1 1-1 2v3l-2 1-3 2v5l3 2 2 2v44l-2 1-2 1-1 2v1l1 3v2l2 1h2v88l1 89h-1v1h-2l-1 1-1 1v6l2 2 3 2 1 2 1 2h2l1 1 2-2 2-2v-1l1-1 1-1h24l141-1h140v5l1 1h6zm-86-15H372l-108 1v-1h-1v-44l1-44v-145h37l37-1V973l-26 1h-47l-2-1-1-107V748l153-1 152-1h1l2 1v54l-1 50v49l1 216 1 216v1h-64zm75-58v-55l-1-136-1-137V750H265v118l1 102h74v1l1 1v127l-1 2v1h-74v19l1 19-1 1v91l1 89-1 5v5h146l78-1h78zm-242-198v-10h-20l-2 1-1 2v-1l1-1-2-1h-2v20h2l1-1 1-2 1 2v1h9l10 1h2zm-28 0v-10h-7v20h7zm-27 1v-10h-5l-1-1v17l1 1h1l2 1h-1l-1 1h4zm10 0v-10h-7v19h7zm8-1v-9h-6v19h6zm318-6v-12l-1-1h-16l-7-1-1 13v12h25zm7 5v-17h-5v23h5zm7-6v-11h-5v23h5zm7 1-1-11v-1h-4v23h5zm6 6v-18h-4v23h4zm7-7v-11h-4v1l-1 1v21h5zm-315-11v-6h-20v12h20zm-29 3v-3l-15 1-15 1h-2v3h32zm343-7v-2h-29v3h3l4 1h11l11-1zm-25 0v-1h22v1h-22zm-14-3v-3h-1l-2 1h-16v5h19zm8 1v-3l-1-2-2-3h2v-3l-1 1h-1v-1l1-1v1h1v-2h-2v-2l1-2-1-3-1-2v-3 4h2l-1-2v-3l1-1v6l1 5v-14l-1-1h-1l1-3v-3l1 2v2-5l-1-1h-2v-1l-1-1v43h5zm-4-32v-2h1v4h-1zm-279 23v-6h-20v12h20zm298 3h3v1h3l1-2v-1l-1-1h-1l-1-1-2-1h1v-1l-1-1-2-2h-1l-1 1v3l-2 1-1 1h-2v2l-1 1h1l1 1h1l1-1zm-6-1h-1 3-1l-1 1zm-17-3v-4l-9 1h-9v3l-1 4h19zm30-5-1-1h2v2h2v-9l1-2-1-1h-1l-1 1v2h-1v-1l1-1-2 3-3 2v2l2 2 2 3h1v-1zm-11-2 1-2-1-2-1-1-2-1-1-1v-1h-1l-1 2v2l1 3 1 2v2h1l2-1zm-19-1v-2h-18v2l-1 2h19zm-275-4v-5h-21v5l1 5h20zm287-2v-1 4-1l1-1zm-12-1v-3h-2l-1 1h-15v5h9l9-1zm26-1 1-2 3-2 2-2-1-1h-18l1 1 1 1 2 1h2l1 1v2l-1-1 1 2 2 2h1l1-1zm-13-1h1-2v1h1zm-13-8v-6h-9l-10 1 1 5v5h18zm-276 0v-4h-20v9h21zm-28-2v-1h-31v4l15-1h16zm343-2 2-1-1-1-16 1h-16l1 1v1h29zm-314-7v-21h-26v12l1 12v2h24zm277 3 1-1v-18h-22v19h20zm-332-11v-13l-3 1h-3v25h6zm10 0v-13h-7v26h7zm-4-10-1-1h2l-1 1v2zm13 10-1-13h-5v26h6zm8 3v-12l-1-4h-5v25h6zm313-2v-9h-5v9l1 9h4zm8 0v-9h-5v18h5zm7 0v-9h-5v18h5zm8 0v-9h-5v18h5zm7 1v-8h-2l1-1h1v-1h-5v9l1 9h4zm2393 322-1-1V892l-1-73v-74l1-5v-5h74l117-1 117-1v1l1 1v221h-37l-38 1v129h74l1 87v148l-154 2-154 1zm305-38v-197l-37 1h-38l-1-1 1-18V954l1-1h37l37-1-1-107V737h-1l-151 1-151 1v111l1 153v153l1 82v83l151-2 151-1zm-889 39h-27v-37h4l2-1h1l-1-4v-4h-67v-13l-1-12v-83l1-11 2-10 1-4 1-4 2-8 2-8 2-6 3-6 2-4 1-3 4-7 4-6 5-7 5-7 9-9 9-10 8-5 7-5 8-4 9-5 5-2 6-2 4-2 5-1 5-1 6-1 4-1 4-1 17-1h17l11 2 11 2 4 1 4 2 7 2 7 2 4 2 4 2 4 2 3 2 5 3 4 3 7 5 7 5 6 7 7 7 3 4 3 4 2 3 3 4 3 5 3 5 2 6 3 6 1 2 1 3 3 8 3 8 1 5v4l1 2 1 1 1 7 1 7v57l1 57-1 1h-34l-34 1v8h2l2 1h3v35l-1 2h-110zm134-3 1-1v-29l-1-1-2-1h-4v-14h1l1-1h67v-90l-1-10v-10l-2-9-1-8-2-8-2-8-1-3-1-3-3-7-2-6-3-5-3-5-2-4-2-3-3-5-4-6-3-4-3-4-6-5-6-6-7-5-8-6-5-3-6-3-2-2-3-1-5-2-5-2-3-1-4-1-3-1-3-1-6-1-6-2-9-1-9-1h-16l-10 1-9 1-4 1-3 1-2 1h-2l-4 1-5 1-4 2-4 2-8 4-8 4-6 3-5 4-5 4-5 4-8 8-8 8-4 6-4 5-3 5-3 5-3 7-3 6-1 2v1l-2 4-1 4-2 7-2 6-2 8-1 9-1 11-1 11v95h67l1 1h1v9l-1 3v3h-5l-1 1v29l1 1h118v1l19-1h20zm-690 6v-2l-1-2 1-44v-43l-1-2v-1h-3l-1-1-2-1v-4l-1-2-1-3-4-4-3-4h-2l-2-1v-2l-1-2v-6l-1-1h-64l-64 1h-1v7l-4 4-4 4-3 3-2 2-1 4-1 3-2 2-1 1h-2v1l-1 1v93h-36l-36 1v-243h100l8 9 9 9h1l2 1h128l6-6 5-5v-14l1-1 31-1h31v1l1 1v81l1 82v85h-80zm77-79v-77l-1-45v-44h-58v12l-1 2-4 5-5 5-2 1-2 1h-131l-1-1-1-1-8-8-7-8-2-1h-94l-1 1v118l1 117h65v-94h3l1-1 2-2 2-4 3-5 4-5 5-5v-1l1-2-1-2v-3l1-1h135v4l1 4 5 6 6 7 2 3 2 3 1 2 1 1h3v7l1 7v70l-1 8 1 1v1l1 1h37l36-1zm-170-81h3l1 1h-6zm340 159v-1l-1-115v-119h28v-1l1-1V961h-1l-1-1h-13l-13 1v-2l-1-42V738l91-1h91v100l1 1h72l1 1 1 20v20l1 7 1 7 1 4 1 5 2 4 1 4 2 5 3 6 2 3 2 4 1 2 1 3 4 4 4 5 5 5 6 6 6 4 5 4 1 34v35l-1 2-3 1-3 1-6 3-6 3-6 4-7 5-7 6-8 7-4 4-4 5-4 6-5 6-4 6-3 5-4 8-3 8-3 5-2 6-1 4-2 5-1 3-1 4-2 10-2 9v7l-1 8v62l-1 62v29l-1 1h-105l-105 1zm208-5h1l-1-78v-78l1-2v-2l2-11 3-11 1-5 1-6 3-6 2-7v-1l1-1 2-5 3-5 1-4 1-3 4-5 3-6 6-8 6-8 8-8 7-8 7-5 6-5 3-2 2-2 11-5 10-5v-58l-1-9h-1v-1l-4-3-4-3-5-4-5-5-4-4-3-4-3-4-3-4-4-8-4-7-2-9-3-8-1-5-1-4v-3l-1-3-1-20v-21h-73l-1-1V740l-86 1h-89v1l-1 3v94l1 90-1 14v14h2l3 1 11-1h12l1 67v68l-1 1h-14l-14 1v116l1 111v1l1 1h14l95-1 95-1zm574-28v-3l2 1h12v3h-6l-6 1-1 1h-1zm-2253-19-1-1v-141h14v17l1 62v63h-13zm10-3v-137l-4 1h-4v134l1 1 1 1 1 1h4l1-1zm-471 0v-64h14v23h2v4l-1 1v36h-1v1h-13zm11-23v-21h-1v-1l-1 1-1 1h-4l-1 1v38l1 1h7zm-4-22h-1l1 1zm4-9v-7l-3-1h-3l-1 1-1 1v6l1 7v1h7zm-11-31-1-14v-13h-23v-2l-1-1 1-6v-6h12l12-1v-5h13v2l1 1 2 2 3 2v11l-1 1v1h-2l-1 1-1 3v25h-14zm11-12v-18h2l2-1 1-4v-3l-4-4-3-3h-2l-2-1-1 1-2 2v2h-23v1l-1 1v8h24v1l1 14v13l1 1h7zm1865-33 1-1v2h-1zm-488-7h-8v-95h14l1 1v94zm4-19v-72h-1l-1-1h-6v1l-1 1v44l1 43h8zm484 4v-2l1 1v2l-1 2zm-1876-6h-1v-9l-2-1-2-2v-12l2-1 2-1v-50l-1-25v-25l-1-1-2-1v-13l2-1 2-2v-8l2-1h12v5l1 5v1h2l2 1v13l-2 1h-2v5l-1 4 1 47v46h4l1 1v7l-1 6h-2l-2 1v8l-1 2h-12zm10-4 1-1v-7l2-1 2-1 1-2v-5l-3-1h-2v-1h-1V983h3l3-1v-7l-3-1-3-1v-9l-1-1h-6l-1 5-1 4-2 2-2 2v4l3 2 2 2v53l1 53-3 1-2 1v1l-1 1v2l1 2 2 1 2 2 1 4v5h7zm496-25v-2l1-1h27l1 1 1 1-1 1h-14l-14 1zm1004-36-1-2h-1l-1-1v-3l1-3v-2l1-2v-36l3 1h3v49h-1v1h-4zm-130-30v-87h14l1 1-1 2v1l1 42v42h-15zm11-43v-42h-7l-1 2v41l1 40h7zm-879 15h-2v-1l1-1h24v1l-1 1h-11l-10 1zm4-12v-1l-1-103V771h9l3 1h2l1 5v5l4-4 3-4 3-4 3-3v-5 1l1 1h1l1-1 1-2 2-2 5-5 4-6h-20l-8 1-1 1-1 1h-2v2h-7l-2-1h-2v-2l-1-1-1-1h-4l-1-1v-13l1-1h3l2-1v-11l1-1 5-1h8l1 2v11h1v1l148-1 147-1v-12l1-1 1-1h1l2 1h10v8l1 4 1 1h2v15h-3v1l-1 2v26l1 26 6-6 6-7 5-4 4-5v-32l-1-2-1-1v-13h27l27-1 1 1 1 1v6l-1 5v1l-1 2-1 5-1 5-4 1h-4l-1-2-1-1v-9l-15 1h-15v10l-1 11 1 5v5h30l1-2v-2l1-1 1-1h6l2 1v9l2 3 2 2v1l-3 3-2 3h-1l-4-3-4-3h-35l-11 12-11 11-3 4-3 3v52l1 2 2 2 7 7 6 8 3 1 2 2h25l25-1 8-9 9-10v-60l-5-3-4-4 1-1 1-2 3-2 4-3v-38l-1-21v-20h15v13h137l103-1h35l23 1v11l-1 2-1 2h-18l-1 1-1 1v12l1 1h1l3 3 3 3h11l2 2 2 3-1 3v3h-3l-3 1h-9l-2-1h-2l-6-6-6-6-1-2-1-2v-7l1-7-1-1v-1h-80l-81 1h-103l-1 1v132l-13 14-13 13h-30l-30 1-2-1-2-2-8-8-7-8-6-6-5-6-1-65v-65l-127 1-126 1-2 1h-2l-1 3-2 2-3 4-4 4-3 4-3 4-2 3-3 3-5 6-5 7-4 4-4 4 1 89v89h16l1 1v2h-20V776l-1-2h-8v103l1 101h-2zm397-75h1l12-12 12-12 1-1V743h278l10-1h10v-9h-1l-37-1h-37l-111 1-112 1v-15l-4 1h-5l1 75v75l-1 2v1l-1 2-2 1-5 6-5 6-3 2-2 3h-54l-4-4-4-5-6-6-6-6-1-3V744l2-1h2v-6l-1-2v-1h-3v-14h-3l-4-1-1 1-1 1v13h-4l-146 1-147 1h-4v-15l-4 1h-4l-1 1h-1v12l-1 1h-3l-3 1v6l1 1h1l3 1 2 1v1l1 2 1 1h7v-3l1-2 150-1 150-1 1 1 1 1v130l1 2 1 2 12 11 11 11 2 2 2 1h26l27-1zm-67-97 5-5 8-8 8-8h39l1 1 2 1 1 1 2 1h1v-3l-1-1-1-2h-1v-5l-1-2v-2h-3l-1 2v3h-1v1h-34l-1-16v-18h-4v34l-1 2h-1l-9 9-9 9-2 3-2 3-1 2v3h1zm82-2v-3h-2l-1 1-1 1v2h1l1 1h2zm-395-15 2-2 6-8 6-7 4-6 5-6 5-5 5-6v-2h-1l-3 2-2 1-5 5-4 6-4 5-3 4-3 3-2 3-2 2-2 3-2 3-3 2v3l-1 2v1h1zm703-15 1-1v-3h-1v-1h-6l-5 1-2-2-2-2-3-4-3-3v-14h-4v15l1 3 1 2 3 4 4 3 2 1 3 1h9zm-326-22v-7h-4v1l-1 1v5l1 1 1 1h2zm3-11v-7h-49l-1 1-1 1 1 3v4h49zm789 222h-2v-6l-2-3-1-2-7-7-7-7h-120l-5 1-3 2-2 3-6 6-5 6h-98l-2 1h-2V728h1v-1h323v234l-1 1v1h-59zm59-45V730h-1v-1h-55l-131 1h-131v181l1 41 4 1h93l8-9 9-9h126l1 1h1l6 7 7 7 2 3 2 3v3l1 1h57zM668 940l-1-1 1-54v-97h6l7-1 1 16v137h-12zm11-15V790h-8v147h8zm-471 9-1-1v-9h-11l-11 1-1-1h-1v-14h24v-28l2-1h12l1 14v14h3l2 1v14h-2l-3 1v10h-14zm9-2h2v-10h1l1-1h3l1-4v-3l-1-1-1-1h-2l-2-1v-27h-8v1h-1v26l-1 1h-23l1 4v5l1 1h22v6l1 2v2h2l1 1h1zm1372-23v-50h-36v-10h35l1-7v-45h15v112h-1v1h-13zm11-55v-53l-1-1h-7v106l1 1h7zm-12 0v-2h-32v4h1l1 1h30zm-495 21h-5l-1-1-2-1v-3h2l2 1 1 1h3v-3l1-4-1-10v-10l-1-1-2 1-2 1-3 2-2 2-4 2-3 2-3 2-3 1v1l3 3 2 2 1 1 1 2h-1v1h-2l-1-1-1-1-2-3-2-2-1-4-2-3v-5h1l2 1 1 2v2l1 1 7-4 6-4 3-2 3-3h1v-1l-5-3-4-4-5-3-5-3-2 1h-2l-1 3-1 4h-2v-5l3-6 3-5 3-2 2-3h1l1 1v1l-2 3-2 3-1 1-1 1 4 2 4 2 1 1h1l3 3 4 2 3 2 2 2 1-4v-24l-1-1h-4l-3 1-1-1 1-1 1-2h3l3-1 4 1h3l3 1 3 1v2h-2l-3-1-3-1-1 1v30l-1-1-2 2-2 1 1 1v1l3-1h2v-3l1-2 3-2 2-2 8-5 8-5v-1l-1-2-1-1-1-2-2-1v-2h2l2 2 3 3 2 4 2 4 1 4 1 3-1 1h-2v-1l-1-1v-3l-1-2-1-2-3 2-3 1-5 4-6 3-2 2-2 2v2l6 3 5 3 5 3 4 3 1-2 1-3 1-2 1-2h2v4l-2 4-1 4-2 3-2 3-1 1-1 1-2 1h-1v-3l2-2 3-2v-3l-2-1-2-1-9-5-8-5-1 1v27h6l1-1v-1l1 1h1v3h-2l-2 1h-4zm-883-14h-3v-63h14v2l1 2v57l-1 3h-8zm8-3 1-1v-56l-5-1h-4v56l1 2h7zm1373-82h-2l-1-23v-22h-36l-1-1 1-7v-7l17-1h18l2-2 2-2h10l3 2 2 2 1 1 2 1v10l-1 2-1 2h-3v45h-11zm9-23v-23l1-2h2l2-1 1-1v-6l-1-1h-2l-2-3-3-2h-5l-1 1v2l-2 1h-32l-3 1v9h35l1 1v37l1 4v3h8zM214 778h-6v-1h-1v-26l-2-1h-21l-1-1v-15h23l1-1v-12h12l1 1h1v11l3 1 2 1v13l-1 1-1 2h-2l-1 1v26h-1v1zm4-4h1v-24l1-2 1-1 2-1v-1l1-1v-5l-1-1-2-1-2-1-1-6v-6h-4l-4 1v6l-1 6h-11l-12 1v9h24v28h8zm534-19v-1h2v1h-2zm1890-17h-4v-15h17l1 1h2v12l-1 1v1h-9l-3 1zm12-3 1-1v-1l1-2-1-2v-2h-13l-2 1 1 3v3l3 1h8zM744 751v-1h1v1h-2zm6-1v-1 1h1v1h-1zm1602-12v-13h20v13l-1 1-9 1h-9zm17-6v-4h-13l-1 1v6l1 1h13zm969-34v-3h-19v-13l1-1v-1h18v-1l1-1v-44h3l3-1 4 1h4v23l1 22 2 1h2v13l-1 1-2 1-2 2-2 3-1 1h-11zm11-1h1v-2l1-2 2-1 2-2 1-2v-4l-1-1-2-1-3-1v-22l-1-23h-6v1h-1v22l-1 23h-10l-7 1h-1v8h19v7h6zM236 722h2l1 1h-5zm2690-20h-3l-1-3v-15h-3l-3-1v-3l-1-3 1-4v-4h5l1-1v-74l1-2h10l4 1v3l1 2-1 30v39l-1 11 1 2v2h8l4-1h34v16h-45l-1 2-1 3h-7zm7-4h1v-2l1-2h46v-5l1-5h-3l-23-1h-23v-30l1-30-1-14v-14h-7l-1 1v75h-1l-1 1-2 1-3 1 1 3v3l1 1 1 1h2l2 1v16h7zM887 715h4-6zm2340-20h-22v-14l3-1h3l1-2v-7h15v8l18 1h21l3 1 1-5v-5h12v1l1 1 1 3v3l8 1h9v15h-51zm70-8 1-4h-17v-7l-1-1-1-2h-3l-2 1h-2v8l-1 1h-46l-1-1v-8h-7l-1 1h-1v7h-3l-2 1h-2v9h89zm-437 3v-2h-1v-2l-1-1h-104l-19-1h-20v-6l1-7v-2h65v-82l-1-24h-157v1l-1 1v39l-1 39h-9v-80h-49v106h49l1-1v-4l1-1h7l1 3v2l1 1h70v8l1 8h-100v1h-2l-2-1h-40v-68l-1-68h-32l-1-1-2-2h-7v-2l4 1h4v-36l1-2v-2h6l6 1 1 1 1 1v33h10l10-1h2v1l1 1h-22l-1 2v2l1 1h19l3 1v134l9 1h8l60-1h61v-10h-71l-1-1v-4h-3v2l-1 3h-55V484l2-2 3-2 6-6 6-6v-41l1-39v-39l-12-12-13-11 1-63v-63h106l95-1h2l2 1v80l1 79v128l11 1h12v1l1 27v27l-1 3v4h-110l-110 1v9h1l25 1h27l-1 40v39h1l1 1 1-1h1v-79h82l82-1v1l1 50v61l-33 1h-33v9h30l4-1h12l11 1h84l1 1 1 3 1 3h5l2-2 1-1 1-2 1-2 2-2 1-2v-5l-2-1h-2v-5l-1-2v-1l-2-1h-4l-2 1-1 3v4l-1 1h-67l-1-1v-35l1-36h66l2 1v4l1 1 2 1h5v-8l1-7-1-1h-4l-4 1-1 1v2h-67l-1-1v-30l1-4h26v2l-1 1h-3v-1h-2l-1 1-1-1h-2l-1 1h-9l-2-1h-1v2l-1 2v24l1 1 1 1h58l2 1 1-2v-1h5l4-1 4-1h1v21h-12l-1-1-1-1v-4l-1-1h-11v12l1 12h3l1 1v17l-1 1h-1l-2 1v23h11l1-3v-5h13v2l1 3 1 2 1 1 2 1 1 4v3l-1 3v2l-2 3-3 3v2h-1l-1 1h-3l-3 1h-4zm-59-23 1-3 3-7 3-7-5 4-5 5v2h-1l-2 1v7h4zm11-8-1-10-4 10-5 10h10zm7 4 1-5v-12h-6v23h5zm8-5v-12h-4l-1 1v22h5zm10-1v-11h-8v23h8zm8 0v-11h-6v23h6zm-41-7 5-4v-1h-13v12l1-1 1-1zm7-13v-6h-13l-1 1h-1v9-2h2l-1 2v2h15zm37-1v-7h-33v14h34zm-38-8-7-6-7-5v12h13zm26-14v-12h-3l-4 1v23h8zm9 1v-12l-1-1h-6v2l1 2v20h6zm-26 0v-12h-5v23h6zm7-1v-11h-4v23h4zm-21-1-4-10h-5v10l6 6 7 5zm6-1v-9h-7l2 6 3 7 1 3 2 3zm-31-66 1-1v-54h-13l-12-1V202h-99l-98 1h-1l-1 1-1 60v60l1 1 1 2 4 3 3 3 8 7 8 8v88l-1 16v17l-8 8-9 9v61l1 1h216zm-253-19v-19l-4-1h-4v1l-1 2v36l1 1h8zm-398 166-1-2-1-1-1-2-2-1-2-2-1-1v-11l1-1v-1h3l3-1v-3h7l7-1v3l1 1 1 1h13v-61h-13l-1 1v1l-1 2h-6l-6-1-4-2-4-2h-1v-9l2-1h2l1-1 1-1 1-3v-2h14v3l1 3 1 1h69l1-4v-3l6-1h7v1h1v39l1 40 25-1h26V565l-1-1h-50v4l-1 3-1 1h-12l-1-1-1-1v-6h-35l-35 1v3l-1 4h-1v1h-12l-1-5v-5h-8v-14h7v-24l1-1h14v1l1 2-1 10v11l1 1v1l35-1h35v-20l1-21-1-6v-5h-70l-1 3v3l-1 1-7 1h-6v-1l-1-2v-4l-2-1h-2v1h-1v3l-1 3v-21l3-1h4v-28l7-1h6l1 14v14l1 1h50l50-1v-66l-1-1h-100v6l-1 2h-13v-42h11l3 1v10l1 11h100v-2l1-36v-37h-1l-50-1h-50v21l-1 1h-14v-45h14v1h1v10l12 1h49l38-1h1V205l-2-1h-50l-48 1v12h-8l-7 1v-13h-9l-1-1v-15h125v-1h2l2 1h223l13-1 1 1v15h-14l-15-1-1 1v26h1l1 1 29-1h57v-27h-27v-1l-1-6v-7l94-1h94l53-1h53l1 3v7l-1 4-18 1h-19v271l1 1h111l7 1v15h-38l-39 1h-17v2l-1 3 1 26v26l4-1h4v3h-11v-62l47-1h47v-9l-15-1h-105v-44l1-43V206l1-3v-4h36l1-1 1-1-1-3v-4l-144 1-144 1-1 1v6h1v1h26v1h1v31l-1 1h-43l-43 1-3-1h-3v-14l-1-13 1-3v-3h30v-5l-1-3h-155l-9-1h-193l-2 1h-2v10h11v11l2 1 2 1h2l2-1 1-6v-6h105l1 1v113h-51l-52 1h-2l-1-1v-5l-1-6-4 1h-4l-1 1v37l1 1h8l1-1v-20h52l51-1 2 1h1v40l1 40h-1l-1 1h-105v-11l-1-11h-8v36h7l1-1v-1l1-2v-3l1-1h105l1 36v37l-1 1h-106l-1-1v-28h-2l-1-1-2 1h-3v1l-1 13v16h-6v7l1 1h5v2l1 1v4h8v-2l1-2v-3h73l2 1 1 1v57h-76v-1h-1v-12l1-12h-3l-3-1-2 1h-1v25h-7v5l-1 1h8v10h8v-2l1-1v-4l36-1h38l2 1v3l1 1 1 2 1 1h5l1-2v-6h56l1 1 1 1v109l-1 1v1h-56l-1-40v-39h-8l-1 1v78h-76l-1-4v-3h-4l-2 1-2 1v5h-3l-3 1-1 1v4l1 2 1 2 1 1h2l2 3 2 2 1 1 1 1h4v-2l1-3 1-3h97l98-1v-10h-24l-24 1-1-1h-1V564l1-3h100v1l1 54v56l-1 1h-14v1h-1v5l1 4 8 1h8l5-1h5v-9l-1-1h-6v-52l-1-51v-5l1-5h39v-7l-1-1v-1l-102 1h-103v-58h30V204l1-2h19l84-1h84v126h-1v1l-9 8-8 8-2 2-1 1v20l-1 34v72l2 1 1 1 5 5 5 4v54l1 1h7v1l1 1h19l3 1v-36h12l1 1 1 19v20l1-1h6l5-1v2h-4l-4 1h-4l-1 2-1 1h-33v6l-1 5v124l-1 1h-20v-3l-1-3 1-5v-5h6l1-1h1V564h-35v35l1 1 1 1h-1v9l-1 9v49l1 1 1 1h5v7l1 7-1 1-14 1h-19v-16h8l7-1V564h-24l-24-1-23 1h-22l-1 1-1 2 1 52v51h49v15l-1 1h-195v7h-2l-1 1h-10zm311-25V548h12l12-1v-1l1-1v-1l-1-1h-19l-2-1h-6l-3-1v22l-1 21v87l-1 1v1h-7v10h15zm-279-6v-9h1v2h2v-2h1l1-1v-1h-6v20h2zm5 8v-1h-1v1l-1 1h2zm8 0v-1h-5l-1 1h5zm7 0v-1h-3v2h3zm14-6v-7h-1v-1h1v-6h-4v10h1v11h3zm9 6v-1l-3-5-2-6-1-2-1-2v16h7zm9-2v-8l-7-4-7-4 2 4 2 5 2 5 2 4h6zm-47-7h-2v1h2zm15 0v-2l-1 1h-1v2h2zm32-7v-4h-12l6 4 5 3h1zm-47 2v-1h-1l-1 1v1h1l1-1zm14-1v-1h-1v2h1zm6-1 1-1h-1v2zm-16 0v-1h2v1h2v-3h-5l-1 1 1 1h1l-1 1h-1 2zm13-2v-1h-7v1h6zm11-12v-6h-32l-1 1-1 1v10l1 1 1 1 16-1h16zm9 6h-1v-2l1-1 2 1h1v1h-3v1l1 1h5-1l-1-1h1v-1l2 1h1v1h2v-14h-15v14h5zm-41-15v-1h-1l2-1 3-1h-2l-1-1h1l2-1h-1l-1-1-1 2-2 1 1-3v-4h-1v-1h1v-2h-1v-6h1l-1-1v-1h-1v21h2zm3 0v-1l-1 1h-1 3zm48-5v-5h-1l-5 4-6 4 1 1v1h11zm-19-5v-10h-2l-1 3v9h-1v1l1 1-1 2-1 2 1-1v1l2 1h2zm-11 8v-1h-3v1h3zm-14-2v-1h-1v2zm37-4 7-5v-8h-7l-2 1-2 8-3 9zm-6-5 2-7h-3l-2-1v15-1zm-35 5v-1h-2v1l1 1h1zm-26-19v-8l-1-1-1-1h-4l-1 1-1 1v4l-1 1-1 1-2 1h-2l-1 1h-1l1 2 1 2h2v-2l2 2 1 1 3 1 2 1h4zm74 0v-2h-69l-1-1v6h70zm218-76v-42l-4-4-4-3-3-3-2-2v-13l1-12V346l4-5 5-4 6-6 6-5V204h-181v1l-1 1v219l1 68-1 2v2h-29l-1 4v26l1 22h104l97-1zm44 15 1-4v-16l-1-16-4 1h-5l1 19v20l1 1h7zM1036 697v-6h-2l-6-1h-6l-1-2v-3l1-5v-5h12V570l-1-1h-27v1l-1-1h-8l-1 1v99l1 3v3h5v3l1 6v6l-56 1h-55v-15l47-1h46l1-5v-77l-1-15 1-3v-5l-1-1h-58l-59 1v1l-1 1v52l1 51 2 1 3 1 1 7v7h-24v-15h6V569h-6v-8l-1-7h93l92-1-1-21v-21h-6l-1-1h-2l-4-4-3-3-2-3-3-3V356l1-4 10-11 11-10V208h-81l-54 1h-53v13l-1 13v267h-22l-1 1v11l1 12h-8l-7-1v-23h-35l-34 1-1 11v12h-14l-1-1v-22h-5l-1-1-1-1 1-5v-7l1-2h5v-28l4-1h10v1h1v28l4 1h4l42-1h43V381h-92v1h-1v56h-7l-6 1-1-1v-1l-1-61V267l1-1 1-1h11l1 1 1 52v52h93V227l-1-18h-91l-1 1h-1v35h-5l-4 1-3-1h-2v-35l-1-1h-21v-14l10-1h11l3-1h10l5 1h111l106-1h96l1 6v7h-1v1l-2 1-2 1v46l-1 17v18h2l2 1v11h-4v4l-1 4 1 9v8l5 1 4 1h1v14h-15l-1 2-2 1-6 7-7 6v132l1 2 1 1 3 1 2 1h48v23h-3l-3 1v-2l-1-2 1-2 1-3h-2l-1-1-12 1h-13v31h28v-1l-1-2v-5h6v12l1 12h-3l-2 1v3l-1 4 1 1h24l10-1v-8h-8v-24h6v8h26v-31h-1v-1l-12 1h-13v7l-1 1h-5v-24h45l3-2 3-3 2-3 2-2 1-2V362l-2-2-2-2-7-8-8-7h-14v-15h3l3-1h1l2-1v-12l-1-12h-67v-11l3-1h3v-58l1-2v-2h3l4 1 1 1v30l1 30h51v-1h1v-80h-27l-26-1-1 2-1 1h-4l-2-1-2-1v-16h33l33-1 49 1h120l71-1 12 1h54l41-1v14l-1 1h-17l-1 8v8l-1 1v1l-1-1h-11l-1-8v-8h-1v-1l-43 1h-43v126l-1 1h88v-80h14v7l1 8v134l-1 4h-1v-1h-12l-2-1 1-27v-28h-87l-1 1v127h1l1 1h84l1-1h1v-45l1-1h12l1 1v23l1 22h18v15l-1 1h-1v-1h-4l-3-1-6 1h-5v15h2l-1 2v2h-7l-6 1-1-1v-18h-62v40l-1 17h62v-1l1-1v-9h14v11h10v8l1 2v1l-1 2v2h-9v5l-1 1h-13l-1-1v-2l1-2-1-1h-62v29h1v1h60l1-2 1-1 5-1h9v19l-2 1h-6l-5 1-1-1-1-1v-4h-10v18h1l1 1-1 19v32-2l1-2h8v-9h2l3-1h9v1l1 1v6l1 1h6l1-1 1 1 1 1v15l-5 1h-4l-1 2v1h-4v-1l1-1v-2l-1-2h2l1-1h7v-1l1-1v-6l-1-1h-9l-1-5v-4h-1l-2-1-2 1h-2v8h-1v1h-7l-2 1v3h-1l-2 1-18 1h-22l-3-1v-2l-1-3h-12l-1-2V566l1-1 1-1h67v4l1 1v1h3l2-1h1l2-1v-4h10v-9h-11v-12h-7v1l-1 1v10h-68l-1-1v-59l1-4h67v1l1 1v8l1 9h5v-10l1-4v-4l1-1h18v-1l1-1v-7h-19v-46h-8l-1 1v46h-91l-1-2-1-1V208l1-3 46-1h46l1 1 1 9v8l3-1h4v-9l1-8h18v-9h-297l-109 1-1 1-1 1v7h2l2 1h29l30-1v1l1 1v122l-2 1h-2l-3 1h-3v8l1 1 1 1 6-1h6l4 4 4 4 6 7 7 7v27l-1 27v68l-1 2-5 5-5 5-2 1-1 1h-42v9h31v1l1 1v36h-2l-15 1h-15v9h16l15 1h1v121l-1 1h-15v4l-1 4 1 1 1 1 5-1h10v4l1 3h2l2 1 2-1h1l1-2v-5h10l1-1 1-2-1-3v-3h-9l-2-1-1-52v-56l1-4h113l114-1 1 1 2 1v1l1 2v105l-1 2v1h-12l-1 1-1 1 1 4v3l1 1h45l45-1v1l1 1v5h-3v-2l-1-1h-91v-16h12v-1h1V567h-34l-2 1-2 1v-2h-4l-1 2-1 1 1 4 1 3-1 1v1h-1v1h1v2h-1l1 1 1 1v1l-1 1v83l1 2v1l2 1h2v-1l-1-1h-1 4v1h1l2 1v2l1 2v12h-1l-2 1h-28v-1h-1l1-7v-8h9V567l-21 1h-22v106h13l1 1v7l1 7h-2v1h-32l-31-1h-47v-15h86V568h-115l-1 1-1 1v52l1 51 1 1v1h10l1 7v7l-6 1h-6v6h-15v-7h-16v-15h16V558h-18v103h-6v-39h-34v39l-3 1h-4V558h-22l1 23v59l-1 35h20v14h-2l-9 1h-9v6h-1l-1 1h-5l-5 1zm8-3 2-1v-2l1-3 10-1h9v-3l1-3-1-2v-1h-20V556l16-1h17v-9l-1-1h-32v-37l16-1h17v-9h-49l-2-2-3-3v-2l-1-66v-66l9-9 9-9h13v-9h-3l-2-1h-3l-2-1v-63l1-31v-31h4v-1l1-1v-6l-1-1H893l-158 1-2-1h-5l-3 1-11 1h-10v8h10l11 1 1 1v32l1 1v2h7l1-1v-35h2l1-1h299v126l-11 11-11 11v141l1 2 1 1 5 5 4 5h11v48l-92 1h-92v9l8 1h8l84-1h84v36l1 36v40h-7l-6 1v4l-1 4h1l1 1h11v3l1 2 1 2h3zm246-11v-5h-105l-1 1-1 1 1 3v4h105zm50 0v-3l-1-2v-1h-12l-13 1v7l1 1 1 1h24zm-470 1 1-5-9 1h-9v7l1 1v1h8l8-1zm130-1v-5l-47 1h-58v8l1 2 52-1h52zm412-14v-10h-6v10l1 10h5zm11 8-1-2v-4 2l1 1v-14h-3l-3-1h-2v11l1-2 2-1v4l-1-1-1-1v4h1l1 1v1l-1-1-2-2v7h8zm-2-10h1v1h-1zm-6 0v-1h2l-1 1h-1zm3-1v-1l1 1h1v1h-2zm14 3v-10h-6l-1 10v10h7zm10 0v-11l-2 1h-6v20h8zm-39-61h-12v66h11l1 1v2l1 2v-70zm-128 13v-52l-1-1-1-1-1 1h-1v18l-1 18v70h5zm53 1v-52l-1-2-1-1h-1v1l-1 1v51l1 52v1l1 1 1-1h1zm-336 51v-2l1-14v-50l-1-38v-1l-2 1h-1v105l1 1h2zm-127-3v-86l1-7v-7h-7v1h-1v105h7zm572-28v-9h-4l-4-1-8 1h-10v20h13l13-1zm4-25v-9h-7v18h7zm-29 0v-9h-5l-1-1v19h6zm-4-7 1-1v1h1-3zm14 7v-9h-8v1h5l-1 1-1 1v2l1 2h-1l-1 1h2v2h-1l-1 2v1l-1-1h-1v6h8zm9 0v-9h-6v18h6zm-320 0v-2h-33v4h34zm304-6-1-1v4l1-1v-1zm49-8v-6l-3-1h-3l-1 1-1 7v6h8zm-353 7v-2h-15l-16 1h-2v3h33zm342-7v-4h-3l-30 1h-29v1l-1 1v2h63zm-342-1 1-3h-5l-5-1-12 1h-12v7l17-1h16zm1-8v-3h-34v6h34zm-1-8v-3h-33v6l17-1h17zm1-8v-2h-34v4h34zm0-7v-2h-34v5l17-1h17zm-5-30h1-2v1h1zm-372-29 1-12 36-1h37l1 1h1v22h4l5 1v-23l1-1h20l1-1v-55l-1-54 1-1V209h-1v-1l-4 1h-3v10l-1 9 1 129v133h-48l-47 1h-2l-2-1v-28l-1-1h-4l-3 1v27l-1 1h-2l-2 1h-1l-1 1v6l1 1 1 1h5v23h2l2 1h2l2-1zm0-77V269l-2-1h-7l1 84v83h2l2 1h3zm729-71V258l-1-1h-5l-2 1 1 28v29l-1 12v11l-45 1h-45v8h90v57l4-1h5zm-633 11v-1l-1-1-1-1-45 1h-45l-1 2v3h47l45-1zm304-79v-3h-64v6l1 1 32-1h32zm-86 1v-3h-1v5h1v-1zm32-30v-22l-1-6v-7h-4l1 15v38l-1 4h5zM725 699l-2-1 1-2v-2l-1-1h-1l-3-1-2-1v-13l3-1 2-1 2-3 2-2h12l1 2v3h11l2 3 2 3-1-23v-34l-1-10h-6l-7 1v1l-1 2h-14v-1l-1-1v-15h13l1 1 1 1h5l5 1h29l30-1h1v-33h-1v-1h-34l-34 1v4l-1 5-7 1h-8v-10l-3-1h-3v-7l-1-6 1-1 1-1h4l1-1v-7h15v6l1 1v1l34-1h34l1-1v-6l6-1h9v2l-1 2 1 2v2h8v16h-7l-1 1v104h2l2 1h4v2l1 7v7h-93v3l-1 2h1v1l-1 1h-12zm10-4 1-1v-5h89l4-1v-7l-1-2h-7v-1h-1v-55l-1-55h1l1-1h3l4-1v-9h-8l-1-4v-4l-3-1h-4v2l-1 4v3h-75l-1-1v-7h-8v7h-1v1l-3 1h-3v9h3l3 1v4l1 5 1 1 1 1 3-1h3v-10l38-1h37l1 1v111h-11l-2 1h-3v2l-1 3h-43l-1-2v-2l-1-1h-12l-1-1-1-1v-2l1-1-1-1v-1h-6l-1 1-1 1-1 2v1l-3 2-3 1v1l-1 2 1 2 1 3h5v3l1 4h2l1 1 2-1h3zm55-22v-9l-4 1h-4v2h2v1h-2v14l3-1h3l1 1h1zm-4-7 1-1 2 1h1-5zm-24 7v-8h-6v16l2 1h4zm10 0v-8h-7v2h1l-1 1v14h7zm8 0v-8h-6v2h1l2-1v2h-1l-2 1v13h6zm-2-6h1v1h-1zm23 9h7v-61h-16v32l1 31v-1l1-1zm-15-27v-11l-13 1h-14v20h1l2 1h12l12-1zm-24-24v-9h-4l-1 3v8l-1-5v-6l-1-1v19h7zm-6 5v-3h1v3l1 3h-2zm15-5v-9h-7v18h7zm8 9 1-1v-17h-6v17l1 1h4zm10-5v-13h-7v17l2 1h6zm-53-16v-6l-1-2h-8l-1 1v9l1 1h8zm72-4-1-2h-64l-4-1v6h69zm-556 91h-2v-3l-1-2-2-1h-2v-14l1-1 5-2 4-2 3 1h2l1 1 1 1h45v-65h10v32l1 33h11v16h-1l-2 1h-29l-30-1h-2v5l-2 1-1 1h-9zm10-3v-5l31-1h33v-9l-37-1h-36l-3 1h-2v9l3 1h3v3l-1 2 1 1h8zm52-50v-32h-4v62l1 1h3zm1472 41h-2v-15h18v-1l1-22v-21h9l1 1v42h6l5 1v8l1 7h-37zm34-3 1-1v-8h-10l-1-22v-22l-1-1v-1l-1 1h-1l-1 2v41l-1 1v1h-17l-1 1v7l1 1h31zm24 3-1-1v-14l32-1h31l1-32v-32l1-1h4l4 1h1v64h14v1l1 1v13l-43 1h-43zm84-6v-6h-14v-1h-1v-65h-3l-1 1 1 32v32l-1 1h-63v8l1 1h81zm994-101v-2h6l6 1h5v2l-1 1h-1l-7 1h-8zm-101-19-1-1v-1h6l-1 2-1 2h-3zm7 1h-1v-3h12v3h-11zm13 0h-1v-3h6v1l-1 1 1 1h-5zm-9-12v-4h4l-1 1-1 1h1v1l-1 1-2 1zm-25 0-1-1v-2l2-1h2l1 1-1 1-1 2h-1zm5-1v-1l1-1 1-1h2v4h-4zm6-1v-2h8v2-1l1-1h2v2l-1 2h-3l-2-1v-2h-1l-1 1v1l-2 1h-1zm19 0v-2h2v2l1 1v1h-3zm3 1h2v1h-2zm-1579 6h-113l-1-1v-48h7l2-1 1-1 5-5 4-5 3-3 3-4V357l-2-2-2-2-10-11-10-10-1-51v-64l1-12h206v287h24v63h-4zm114-5v-1l1-27v-28h-12l-11 1-1-2-1-1V253l-1-44v-1h-198l-1 1v121l1 2 1 1 9 9 9 9 2 3 2 2v130l-1 2v2l-8 9-8 9-2 1-2 1-2 1h-1l-1 21v20h1v1l68-1h156zm-28-152v-1l1 1h1v1h-2zm-117-12v-2l1-1v2l-1 1v1zm871 109h18l-9 1h-9zm341-10v-4l1-1v-4h-1l-3-1-3-1-3-2-3-2V351l2-2 1-1 6-6 6-5 2-1 1-1h12v-2l1-2v-4h-1v-1h-5l-4-1v-64l1-11v-11l45-1h46l1 1 1 1v84l-1 1h-1l-3 1h-3l-1 2-1 1 1 3v2h7l6 1h1l1 1 7 6 7 7 2 2 2 2v110l-5 5-5 5-3 1-3 2h-3v6l1 1 1 1v2h-3l-1-1v-6l-1-7h9l5-4 4-5 1-1 1-1v-54l-1-53-6-6-7-6-3-3-2-2h-14l-1-2v-11l3-1h3l1-1h1v-13l1-34v-33h-1l-1-1h-42l-42 1h-1l-1 1v79h1l2 1 3 1 4 1v10l-1 2h-7l-8 1-3 3-4 3-3 3-4 4v18l-1 19 1 41v41l1 1 2 1 4 1h4v1h1v12h-1l-2 1-1 1v1zm22-6v-7h1l32-1h32l1 1v13h-66zm63 3v-8l-30 1h-30v7h1l1 1h28l29-1zm-475-98h-6l-1-1v-2h8l9-1v2l-1 1-1 2-1-1zM962 360v-2h1v1h1v1l-1 2-1 1zm1166-79v-41h15v40l-1 1-7 1h-7zm12-7v-31l-1-1-1-1-4 1-3 1-1 16v18l1 1h8zm699-73-1-1 1-6v-7h37l10-1v3l1 3-1 5v4h-47zm45-6v-5h-42v1l-1 1v7h43zm-45-35-1-1v-1l1-1v-12h47v14h-1l-22 1h-23zm44-4 1-1v-8h-43v9h1l1 1h39zm-317 4h-13v-7l1-7v-1h18v-8l1-14v-15h4l4 1h1v36h17v1l1 2v12h-20zm27-3h4v-10h-17l-1-1 1-14v-14l-1-4v-3h-4v36l-9 1h-9v10h32zm-356 4v-14h1v-1h3l1-1 1-1V35l1-8v-8l-1-1h-51l-51 1-5-1h-5v3l-1 4 1 60v61h9l9 1 28-1h29v1h1v7l-1 6h-10v-1h3l2-1 2-2 1-2v-4h-76V83l-1-68h120v46l-1 46v41h-1l-2 1-3 1v7l1 1 1 1h28v-2l1-1v-4l-1-3h-14l-1-49V50h70v26l-1 25v48h-18v10h-1l-2 1 1-7v-7h8l9-1h1V84l1-30-1-1v-1h-62v1h-1v92h8l3 1h3v15h-35zm-813 4-2-1v-14h1v-1h28l1-1h1v-14h14v7l1 7 4 1h14v15h-2l-2 1h-56zm58-4h1v-5l-1-4h-18v-14l-1-1v-1l-3 1h-3v1l-1 2v12h-31l1 5v5h55zm698-2v-1h2l-1 1v1h-1zm4 0 1-1h3v2h-4zm7 0h3-5zm118-1h1l7-1h7v1h-8l-8 1zm-1190-52v-8h1v16h-1zm0-12V81h2v15l-1 1-1 1z"/>
</svg>
